<?xml version="1.0" standalone="no"?>
<svg version="1.0" xmlns="http://www.w3.org/2000/svg"
 width="256.000000pt" height="256.000000pt" viewBox="0 0 256.000000 256.000000"
 preserveAspectRatio="xMidYMid meet">
<metadata>
Created by potrace 1.16, written by Peter Selinger 2001-2019
</metadata>
<g transform="translate(0.000000,256.000000) scale(0.100000,-0.100000)"
stroke="currentColor" fill="currentColor">
<path d="M1045 2540 c-272 -56 -481 -167 -669 -354 -195 -194 -314 -428 -360
-705 -41 -243 1 -544 105 -758 215 -442 665 -723 1157 -723 428 0 801 191
1047 535 35 49 73 108 84 130 111 226 146 368 146 605 0 177 -14 274 -62 420
-106 322 -349 600 -656 749 -223 108 -552 150 -792 101z m447 -115 c242 -51
434 -152 599 -315 141 -138 225 -273 283 -453 27 -83 56 -230 56 -284 l0 -33
-353 0 -352 0 -19 66 c-19 64 -75 153 -128 200 -79 71 -189 114 -293 114 -201
0 -370 -126 -431 -322 l-18 -58 -358 0 -358 0 6 43 c24 170 61 301 115 410
164 328 446 541 834 631 84 20 324 20 417 1z m-126 -876 c86 -22 179 -135 199
-241 9 -46 -16 -135 -53 -187 -31 -45 -100 -94 -156 -111 -160 -50 -340 75
-354 246 -11 131 72 252 199 293 64 20 86 20 165 0z m-510 -391 c102 -312 482
-419 723 -204 48 42 107 133 126 194 l20 62 357 0 357 0 -6 -37 c-33 -236 -83
-374 -198 -548 -71 -106 -221 -257 -310 -312 -222 -136 -410 -193 -642 -193
-318 0 -612 125 -837 355 -117 120 -213 279 -266 436 -17 51 -60 258 -60 292
0 4 162 7 359 7 l359 0 18 -52z"/>
<path d="M1213 1474 c-75 -27 -130 -103 -132 -182 -3 -132 84 -218 214 -210
79 5 113 23 152 80 42 63 49 114 28 182 -21 66 -63 108 -128 130 -57 19 -79
19 -134 0z"/>
</g>
</svg>
