<?xml version="1.0" standalone="no"?>
<svg version="1.0" xmlns="http://www.w3.org/2000/svg"
 width="256.000000pt" height="256.000000pt" viewBox="0 0 256.000000 256.000000"
 preserveAspectRatio="xMidYMid meet">

<g transform="translate(0.000000,256.000000) scale(0.100000,-0.100000)"
stroke="currentcolor" fill="currentColor">
<path d="M947 2526 c-37 -18 -84 -49 -105 -69 -21 -20 -43 -37 -49 -37 -6 0
-35 -16 -64 -36 -30 -20 -67 -43 -82 -51 -48 -25 -149 -105 -207 -163 -30 -31
-74 -69 -97 -84 -55 -36 -59 -51 -27 -97 24 -35 25 -41 14 -70 -7 -17 -28 -49
-47 -71 -26 -32 -33 -49 -33 -84 0 -24 -8 -65 -17 -91 -9 -26 -17 -79 -18
-118 -1 -38 -7 -108 -13 -155 -7 -47 -12 -173 -12 -281 0 -192 1 -198 31 -290
19 -60 49 -123 83 -174 29 -44 60 -92 70 -108 32 -52 141 -159 191 -188 27
-16 62 -29 77 -29 15 0 76 -26 135 -57 60 -31 147 -76 195 -100 75 -37 94 -52
130 -101 23 -31 46 -60 52 -64 18 -13 85 -9 109 6 23 15 199 56 239 56 77 0
172 66 184 127 7 34 59 68 234 151 58 27 130 61 160 75 30 15 81 48 113 74 65
53 73 82 32 115 -14 11 -25 27 -25 36 0 25 70 177 121 262 l44 75 0 230 c-1
209 -3 235 -22 290 -12 33 -34 115 -48 183 -30 137 -28 203 6 225 25 15 24 34
-3 77 -11 19 -24 60 -27 90 -5 44 -10 55 -26 58 -34 7 -85 51 -85 76 0 12 -5
27 -12 34 -15 15 -48 16 -48 2 0 -20 -57 -9 -125 24 -437 212 -469 226 -550
236 -44 6 -107 17 -140 24 -33 8 -107 16 -165 19 -102 5 -107 4 -173 -27z
m308 -220 c33 -21 52 -20 58 4 6 24 52 26 112 5 22 -8 50 -15 63 -15 31 0 221
-76 274 -109 24 -15 92 -54 151 -86 121 -66 157 -94 157 -124 0 -11 11 -41 25
-67 14 -26 25 -55 25 -65 0 -10 13 -25 30 -34 35 -18 53 -70 75 -215 9 -52 19
-113 24 -135 5 -22 7 -62 4 -88 -7 -62 -26 -72 -170 -92 -154 -21 -207 -33
-268 -61 -46 -21 -152 -44 -209 -45 -32 0 -121 68 -171 131 -25 33 -50 60 -54
60 -4 0 -21 20 -39 45 -19 28 -42 47 -59 51 -15 4 -42 15 -60 26 l-32 19 -29
-43 c-87 -123 -162 -168 -283 -168 -43 0 -92 -8 -140 -24 -74 -24 -241 -46
-352 -46 l-59 0 7 63 c3 34 11 89 17 122 5 33 14 88 18 121 8 67 42 162 91
261 25 51 37 65 62 71 26 7 34 16 44 52 24 83 179 217 406 350 l102 61 78 -5
c48 -2 87 -10 102 -20z m36 -978 c13 -18 38 -50 56 -71 19 -21 31 -42 28 -47
-9 -15 -99 -12 -131 5 -16 8 -42 15 -59 15 -16 1 -41 7 -55 15 l-25 13 62 62
c69 69 81 70 124 8z m-52 -177 c82 -17 178 -42 213 -57 55 -23 68 -25 102 -16
58 15 79 0 143 -97 31 -47 67 -98 81 -113 13 -15 30 -37 36 -50 6 -12 19 -24
29 -26 33 -7 63 36 234 331 51 87 76 109 128 109 70 0 80 -38 36 -136 -17 -40
-24 -46 -49 -46 -27 0 -33 -6 -58 -62 -16 -35 -64 -134 -107 -220 l-78 -158
-86 -65 c-103 -78 -336 -194 -403 -201 -33 -4 -55 0 -85 15 -21 12 -46 21 -55
21 -27 0 -183 41 -211 56 -15 7 -59 20 -98 28 -53 11 -102 32 -184 79 -62 36
-152 86 -200 112 -97 51 -148 98 -217 196 -57 80 -76 116 -83 155 -8 40 9 63
53 74 19 4 50 14 67 21 40 16 47 8 90 -94 15 -38 45 -89 67 -113 21 -25 46
-66 55 -92 20 -55 41 -61 53 -14 5 18 21 54 35 80 15 26 56 110 93 187 36 77
71 150 78 162 l12 22 79 -29 c44 -16 147 -42 230 -59z m-439 24 c0 -4 -6 -18
-14 -33 -7 -15 -17 -50 -21 -78 -3 -28 -20 -75 -37 -105 l-31 -54 -13 30 c-7
17 -13 38 -14 47 0 10 -11 42 -25 72 -40 86 -37 93 55 112 61 14 100 17 100 9z
m1159 -76 c-36 -71 -79 -139 -88 -139 -4 0 -12 21 -19 48 -27 100 -27 99 9
122 19 11 51 23 72 26 20 4 40 11 44 17 5 8 8 8 10 0 2 -6 -10 -40 -28 -74z"/>
<path d="M555 1645 c-66 -19 -78 -36 -71 -104 8 -66 17 -83 63 -118 l37 -28
179 0 179 0 23 27 c27 32 44 113 26 131 -6 6 -11 26 -11 43 0 58 -21 64 -210
63 -106 0 -183 -6 -215 -14z"/>
<path d="M1688 1633 c-31 -2 -61 -10 -67 -17 -7 -8 -14 -44 -18 -80 -6 -64 -5
-68 23 -97 75 -79 159 -109 217 -78 11 7 59 16 106 20 89 9 111 20 111 50 0
11 7 19 15 19 27 0 37 36 26 98 -17 89 -24 92 -205 90 -83 -1 -177 -3 -208 -5z"/>
</g>
</svg>
