<?xml version="1.0" standalone="no"?>
<svg version="1.0" xmlns="http://www.w3.org/2000/svg"
 width="256.000000pt" height="256.000000pt" viewBox="0 0 256.000000 256.000000"
 preserveAspectRatio="xMidYMid meet">

<g transform="translate(0.000000,256.000000) scale(0.100000,-0.100000)"
stroke="currentcolor" fill="currentColor">
<path d="M725 2241 l-550 -319 0 -642 0 -642 552 -319 552 -319 555 321 556
321 0 638 0 638 -551 319 c-304 175 -554 319 -558 320 -3 1 -253 -141 -556
-316z m1097 -15 l543 -313 0 -633 0 -633 -543 -313 -543 -314 -542 313 -542
313 0 634 0 634 540 313 c297 171 541 312 542 313 1 0 246 -141 545 -314z"/>
<path d="M1271 2276 c-1 -63 -40 -423 -57 -526 -18 -111 -54 -225 -90 -286
-54 -92 -157 -160 -272 -179 -54 -9 -47 -16 27 -31 92 -19 169 -61 237 -129
73 -72 115 -151 139 -257 9 -43 21 -78 25 -78 5 0 12 21 16 48 31 207 182 374
374 413 88 18 89 20 13 39 -97 25 -140 49 -197 110 -99 105 -140 255 -176 642
-21 224 -38 323 -39 234z"/>
<path d="M1108 2130 c-145 -110 -255 -288 -302 -494 -9 -38 -15 -71 -12 -73 2
-2 13 12 25 31 35 55 135 142 206 177 l65 32 24 76 c31 98 68 266 64 286 -2
11 -21 1 -70 -35z"/>
<path d="M1374 2158 c3 -12 19 -82 36 -154 l31 -132 172 -5 c185 -5 253 -18
365 -68 73 -33 72 -28 -15 75 -131 156 -345 274 -541 301 -52 7 -53 7 -48 -17z"/>
<path d="M980 2136 c-275 -97 -476 -306 -569 -588 l-23 -68 23 -67 c77 -235
234 -427 444 -544 l60 -33 -46 51 c-51 58 -111 165 -129 232 -17 64 -34 86
-96 118 -29 15 -54 31 -54 35 0 3 25 20 55 37 75 43 90 71 104 197 31 271 132
499 274 618 49 42 44 43 -43 12z"/>
<path d="M1460 1836 c0 -24 24 -46 49 -46 15 0 62 -9 103 -19 279 -72 480
-302 549 -628 l12 -58 11 33 c16 46 60 98 106 124 22 13 40 26 40 30 0 4 -13
14 -28 22 -53 27 -110 100 -127 163 -26 94 -44 145 -68 193 -20 40 -32 50
-117 93 -130 65 -224 87 -392 94 -76 3 -138 3 -138 -1z"/>
<path d="M1668 1673 c73 -72 118 -147 147 -245 17 -62 60 -109 122 -134 18 -8
33 -18 33 -22 0 -4 -24 -19 -53 -33 -52 -26 -52 -26 -50 -70 12 -268 5 -381
-38 -553 -11 -43 -18 -80 -15 -83 8 -9 158 142 201 202 24 33 59 94 80 135 36
72 37 77 31 148 -10 102 -48 245 -90 337 -74 160 -178 271 -318 339 -121 58
-127 55 -50 -21z"/>
<path d="M331 1359 c-13 -17 -41 -42 -62 -56 -22 -14 -39 -29 -39 -33 0 -4 22
-21 49 -37 56 -35 93 -91 111 -170 11 -48 16 -55 83 -101 127 -88 264 -147
409 -177 107 -23 135 -19 62 9 -141 55 -262 135 -361 240 -82 86 -132 159
-184 272 -22 46 -41 84 -42 83 -1 0 -13 -14 -26 -30z"/>
<path d="M1811 1101 c-27 -106 -129 -235 -238 -301 -31 -19 -93 -47 -137 -61
l-81 -27 -34 -101 c-19 -55 -38 -101 -42 -101 -4 0 -15 26 -24 58 -26 95 -46
142 -63 151 -10 5 -80 11 -157 14 -106 4 -164 11 -238 30 -97 26 -259 96 -318
138 -16 11 -33 19 -36 16 -10 -10 71 -148 133 -226 80 -101 184 -182 309 -242
151 -71 211 -84 400 -83 144 0 169 3 248 27 146 45 164 57 203 141 41 89 78
230 93 351 13 105 15 265 3 265 -5 0 -14 -22 -21 -49z"/>
</g>
</svg>
