<?xml version="1.0" standalone="no"?>
<svg version="1.0" xmlns="http://www.w3.org/2000/svg"
 width="256.000000pt" height="256.000000pt" viewBox="0 0 256.000000 256.000000"
 preserveAspectRatio="xMidYMid meet">

<g transform="translate(0.000000,256.000000) scale(0.100000,-0.100000)"
stroke="none">
<path d="M1277 2392 c-33 -290 -58 -486 -83 -639 -43 -268 -64 -333 -110 -333
-33 0 -41 25 -64 190 -16 118 -61 554 -60 588 0 6 -4 12 -10 12 -10 0 -10 3
-40 -230 -50 -377 -83 -541 -123 -613 -26 -46 -53 -46 -80 1 -25 42 -64 238
-77 382 -6 63 -13 126 -16 139 -9 42 -23 9 -34 -79 -34 -279 -53 -427 -66
-518 -8 -56 -14 -107 -14 -112 0 -5 42 -30 93 -55 126 -64 195 -116 308 -231
195 -200 318 -449 380 -768 l23 -119 17 104 c21 132 40 205 85 321 65 172 166
335 283 462 71 76 213 181 314 231 l91 46 -3 52 c-1 29 -11 111 -21 182 -10
72 -26 198 -35 280 -20 167 -33 232 -44 219 -4 -5 -18 -92 -30 -194 -31 -268
-63 -380 -107 -380 -17 0 -28 12 -48 53 -39 80 -72 251 -131 682 -23 168 -36
173 -50 20 -26 -309 -67 -611 -85 -646 -15 -26 -56 -24 -74 4 -30 46 -81 389
-147 977 -6 58 -14 111 -18 117 -4 7 -15 -58 -24 -145z"/>
</g>
</svg>
