<?xml version="1.0" encoding="UTF-8"?>
<svg version="1.1" xmlns="http://www.w3.org/2000/svg" width="1000" height="1000">
<path d="M0 0 C277.2 0 554.4 0 840 0 C840 111.87 840 223.74 840 339 C562.8 339 285.6 339 0 339 C0 227.13 0 115.26 0 0 Z " fill="#FEFDFD" transform="translate(80,229)"/>
<path d="M0 0 C277.2 0 554.4 0 840 0 C840 111.87 840 223.74 840 339 C562.8 339 285.6 339 0 339 C0 227.13 0 115.26 0 0 Z M26 27 C26 121.05 26 215.1 26 312 C42.83 312 59.66 312 77 312 C77.33 270.42 77.66 228.84 78 186 C85 226 85 226 87 240 C88.12373187 244.88953215 88.12373187 244.88953215 89.28173828 249.77099609 C90.49771328 255.2375105 91.20223343 260.7644359 91.9375 266.3125 C93.23103098 275.68461686 94.588752 285.03933905 96.125 294.375 C96.28347412 295.36024658 96.44194824 296.34549316 96.60522461 297.3605957 C96.75870361 298.2805835 96.91218262 299.20057129 97.0703125 300.1484375 C97.20195801 300.94427246 97.33360352 301.74010742 97.46923828 302.56005859 C98.09354029 305.43000998 99.07121725 308.21365175 100 311 C109.24 311 118.48 311 128 311 C128.40992188 308.52886719 128.81984375 306.05773437 129.2421875 303.51171875 C129.64579544 301.08224198 130.04969111 298.65281321 130.45361328 296.22338867 C130.73125694 294.55254004 131.00860788 292.88164274 131.28564453 291.21069336 C132.64286653 283.02571376 134.00658416 274.84493684 135.51269531 266.68579102 C136.54278867 261.00840773 137.486258 255.31602608 138.4375 249.625 C138.54705017 248.97169708 138.65660034 248.31839417 138.76947021 247.64529419 C140.17341065 239.25779082 141.47905603 230.86434241 142.625 222.4375 C143.37819179 216.90549062 144.25269859 211.49719839 145.5625 206.0625 C147.12789953 199.46059765 148.04046271 192.71676101 149 186 C149.33 227.58 149.66 269.16 150 312 C182.67 312 215.34 312 249 312 C250.42372094 307.01697672 251.42144517 302.80093667 252.0703125 297.74609375 C252.19924393 296.75017967 252.19924393 296.75017967 252.33078003 295.73414612 C252.50974223 294.34205759 252.68607372 292.94962851 252.85986328 291.55688477 C253.1248548 289.43866066 253.39968723 287.32188065 253.67578125 285.20507812 C254.41456289 279.41744457 255 273.85461097 255 268 C268.2 268 281.4 268 295 268 C296.12020033 276.96160267 296.12020033 276.96160267 296.5 281.26953125 C296.5825 282.17767578 296.665 283.08582031 296.75 284.02148438 C296.91840229 285.90153805 297.08503368 287.78175109 297.25 289.66210938 C297.3325 290.56380859 297.415 291.46550781 297.5 292.39453125 C297.5721875 293.20768799 297.644375 294.02084473 297.71875 294.85864258 C297.95480508 297.18107209 297.95480508 297.18107209 299 300 C299.33 303.63 299.66 307.26 300 311 C332.34 311 364.68 311 398 311 C398 280.64 398 250.28 398 219 C401.96 218.67 405.92 218.34 410 218 C410.23074219 219.00675781 410.46148437 220.01351562 410.69921875 221.05078125 C412.6845864 229.63886714 414.80241919 238.17921955 417.07299805 246.69628906 C418.60895051 252.47086272 420.06874423 258.26117319 421.5 264.0625 C423.07444483 270.42426615 424.7345228 276.75091902 426.5 283.0625 C429.09742587 292.34829749 431.54611632 301.67524203 434 311 C450.83 311 467.66 311 485 311 C483.44032816 303.84183781 483.44032816 303.84183781 481.484375 296.86328125 C481.06671875 295.52040039 481.06671875 295.52040039 480.640625 294.15039062 C480.34671875 293.21388672 480.0528125 292.27738281 479.75 291.3125 C477.35583032 283.57633923 475.09000871 275.82375472 473 268 C470.75872481 259.63063408 468.31363643 251.34276201 465.75708008 243.06469727 C462.92425005 233.85273057 460.28292619 224.58888796 457.66455078 215.31396484 C457.34599121 214.18812988 457.02743164 213.06229492 456.69921875 211.90234375 C456.41908936 210.90710693 456.13895996 209.91187012 455.8503418 208.88647461 C454.97006037 205.89837029 454.00190023 202.949325 453 200 C453.56203125 199.76925781 454.1240625 199.53851563 454.703125 199.30078125 C468.03978597 191.74787631 476.88992291 173.11693147 481 159 C482.31422003 153.38534032 483.20353654 147.70798811 484 142 C484.08564209 142.56509277 484.17128418 143.13018555 484.25952148 143.71240234 C484.64869818 146.26714633 485.04303485 148.82106747 485.4375 151.375 C485.57220703 152.26445312 485.70691406 153.15390625 485.84570312 154.0703125 C486.04389648 155.34648437 486.04389648 155.34648437 486.24609375 156.6484375 C486.36654053 157.43395996 486.4869873 158.21948242 486.61108398 159.02880859 C486.92238238 161.06611684 486.92238238 161.06611684 488 163 C488.27436682 164.48226317 488.50808605 165.97219444 488.71875 167.46484375 C488.84636719 168.34720703 488.97398437 169.22957031 489.10546875 170.13867188 C489.23566406 171.06228516 489.36585938 171.98589844 489.5 172.9375 C489.75791042 174.75947112 490.01822628 176.58110377 490.28125 178.40234375 C490.39533203 179.21179443 490.50941406 180.02124512 490.62695312 180.85522461 C490.97557798 183.17504029 490.97557798 183.17504029 492 186 C492.3191855 188.56218905 492.60733598 191.11998218 492.875 193.6875 C493.58338407 200.09766129 494.56392398 206.36334521 495.82373047 212.68945312 C496.92569092 218.32994982 497.72781637 223.9934675 498.5 229.6875 C499.41562593 236.39453447 500.59299121 242.88628604 502.2421875 249.45703125 C503.48353303 255.26064156 504.2232812 261.13780233 504.99804688 267.01953125 C505.11470703 267.89351562 505.23136719 268.7675 505.3515625 269.66796875 C505.45291504 270.45453857 505.55426758 271.2411084 505.65869141 272.05151367 C505.91685865 274.07220314 505.91685865 274.07220314 507 276 C507.34860363 277.94569896 507.65395733 279.89922937 507.9375 281.85546875 C508.19660156 283.62567383 508.19660156 283.62567383 508.4609375 285.43164062 C508.63882812 286.67107422 508.81671875 287.91050781 509 289.1875 C509.17789062 290.40759766 509.35578125 291.62769531 509.5390625 292.88476562 C510.23818106 297.68729274 510.93316967 302.48861673 511.5625 307.30078125 C511.71545399 309.91040846 511.71545399 309.91040846 513 311 C514.8718094 311.09386381 516.7471806 311.11743804 518.62133789 311.11352539 C519.82250748 311.11344986 521.02367706 311.11337433 522.26124573 311.11329651 C524.22214394 311.10555458 524.22214394 311.10555458 526.22265625 311.09765625 C527.56644132 311.09579198 528.91022707 311.09436812 530.25401306 311.09336853 C533.79682277 311.08954402 537.3395917 311.07971432 540.88238525 311.06866455 C544.49515227 311.05844899 548.10792584 311.0538706 551.72070312 311.04882812 C558.8138188 311.03809198 565.90690674 311.02101636 573 311 C573.27263672 309.18628906 573.27263672 309.18628906 573.55078125 307.3359375 C574.69974856 299.81264776 575.8559914 292.32407501 577.5234375 284.89453125 C579.14618484 277.6133253 580.25474514 270.2925635 581.30761719 262.91186523 C581.62726492 260.67162638 581.95368476 258.43245299 582.28125 256.19335938 C583.13297409 250.33137438 583.98066014 244.47583126 584.5859375 238.58203125 C585 235 585 235 586 233 C586.45127083 230.0850344 586.86162796 227.17349557 587.25 224.25 C588.49660716 215.20276244 589.92409817 206.1937922 591.4375 197.1875 C591.65229004 195.9085083 591.86708008 194.6295166 592.08837891 193.31176758 C592.911387 188.42535025 593.7386701 183.53966679 594.56787109 178.65429688 C596.4424553 167.60089028 598.24917455 156.55201554 599.78125 145.44555664 C600.54085523 140.01346035 601.37629277 134.59652978 602.26171875 129.18359375 C602.42935982 128.15724068 602.42935982 128.15724068 602.60038757 127.1101532 C603.15655342 123.71295346 603.71826168 120.31677013 604.28686523 116.92163086 C605.37681738 110.31021622 606.30416122 103.7654987 606.76708984 97.07861328 C607 95 607 95 608 93 C608.27533388 91.45647251 608.50869456 89.90532007 608.71875 88.3515625 C608.84636719 87.42859375 608.97398437 86.505625 609.10546875 85.5546875 C609.23566406 84.58789062 609.36585938 83.62109375 609.5 82.625 C609.75846121 80.72108769 610.01880794 78.81743016 610.28125 76.9140625 C610.39533203 76.0679541 610.50941406 75.2218457 610.62695312 74.35009766 C610.96646504 72.21126145 611.47476119 70.10095523 612 68 C612.33 148.52 612.66 229.04 613 312 C645.01 312 677.02 312 710 312 C710 294.84 710 277.68 710 260 C694.82 260 679.64 260 664 260 C664 238.55 664 217.1 664 195 C679.18 195 694.36 195 710 195 C710 177.84 710 160.68 710 143 C694.82 143 679.64 143 664 143 C664 121.88 664 100.76 664 79 C679.18 79 694.36 79 710 79 C710 61.84 710 44.68 710 27 C662.48 27 614.96 27 566 27 C562.75905786 47.9174353 562.75905786 47.9174353 559.875 68.875 C558.87253866 76.67100103 557.78458484 84.42788437 556.45996094 92.17578125 C555.7357426 96.62257408 555.21403392 101.08874723 554.6875 105.5625 C553.42575739 116.00331458 551.95243296 126.40628428 550.4375 136.8125 C548.97213985 146.8854119 547.57812683 156.9456698 546.59960938 167.07983398 C545.82028139 175.12374726 544.62630311 183.0843654 543 191 C540.77387775 184.30193304 540.00914147 177.4832343 539.125 170.5 C538.95303519 169.17311481 538.7805809 167.84629297 538.60766602 166.51953125 C538.15612638 163.04487963 537.71092993 159.56944696 537.26751709 156.09375 C536.83358592 152.69754308 536.3952259 149.30190901 535.95703125 145.90625 C535.44905046 141.96775545 534.9412612 138.02923694 534.43457031 134.09057617 C531.95344957 114.18901596 531.95344957 114.18901596 528.875 94.375 C528.22857517 90.68039303 527.8193352 87.05423635 527.5625 83.3125 C527.14619023 77.53714803 526.14402081 71.95254113 525.08398438 66.26977539 C524.35021688 62.2532932 523.80163116 58.33272712 523.5625 54.25 C522.73695733 45.07730368 520.72325963 36.04711306 519 27 C502.17 27 485.34 27 468 27 C467.98786026 34.6426849 467.98786026 34.6426849 468.65625 42.1015625 C468.79160156 43.16890625 468.92695312 44.23625 469.06640625 45.3359375 C469.20949219 46.42132813 469.35257813 47.50671875 469.5 48.625 C471.21554738 61.73116375 471.21554738 61.73116375 471 68 C470.59910156 67.39414062 470.19820312 66.78828125 469.78515625 66.1640625 C455.44853414 45.03298683 437.26054578 32.05210916 412 27 C390.55 27 369.1 27 347 27 C346.67 107.19 346.34 187.38 346 270 C345.01 262.41 344.02 254.82 343 247 C342.33268693 242.39055275 341.65647286 237.78833454 340.9375 233.1875 C340.77701172 232.13498047 340.61652344 231.08246094 340.45117188 229.99804688 C339.72444342 225.30203849 338.94822477 220.6362255 337.9765625 215.984375 C336.82744515 210.37874842 336.14384547 204.73821286 335.4375 199.0625 C333.36151449 182.94102604 330.89856042 166.87891667 328.4375 150.8125 C328.24195526 149.53472687 328.04641052 148.25695374 327.84494019 146.94046021 C325.49200234 131.55209849 325.49200234 131.55209849 323.07275391 116.17407227 C322.93305679 115.29905563 322.79335968 114.424039 322.64942932 113.52250671 C322.39643809 111.94399796 322.14167538 110.36577146 321.8846283 108.78791809 C321.27064952 104.96525736 320.79305259 101.17261273 320.5 97.3125 C320.17934058 93.13164025 319.48011897 89.12811151 318.66015625 85.015625 C316.51734421 73.94138463 315.07358081 62.76613771 313.54956055 51.59350586 C313.17136448 48.83126857 312.78711192 46.06992205 312.40234375 43.30859375 C312.29083481 42.47621689 312.17932587 41.64384003 312.06443787 40.78623962 C311.95414749 39.99753983 311.84385712 39.20884003 311.73022461 38.39624023 C311.63712509 37.7139183 311.54402557 37.03159637 311.44810486 36.32859802 C310.84060434 33.17169295 309.88318064 30.09113223 309 27 C286.56 27 264.12 27 241 27 C240.34 30.96 239.68 34.92 239 39 C238.75378906 40.47001465 238.50757813 41.9400293 238.25390625 43.45458984 C236.45902362 54.17114184 234.70477291 64.89373619 233 75.625 C232.86960327 76.44440063 232.73920654 77.26380127 232.6048584 78.10803223 C230.84191348 89.22154635 229.20007809 100.33438641 227.9375 111.51806641 C227.26071365 117.42547621 226.21347604 123.1811631 225 129 C222.7428315 141.02996397 221.21054042 153.12545246 219.74029541 165.27026367 C218.70319084 173.80434801 217.50363933 182.21589459 215.78125 190.640625 C214.43933435 197.66471471 213.65864196 204.78798909 212.74075317 211.87728882 C211.67261645 220.11584744 210.5128913 228.31235039 209.07641602 236.49414062 C207.86222816 243.52897099 206.9665426 250.60144955 206.08959961 257.68530273 C205.23581907 264.50644489 204.13288106 271.20271365 203 278 C202.67 195.17 202.34 112.34 202 27 C180.55 27 159.1 27 137 27 C135.57956985 30.55107537 134.74623777 32.6682923 134.2890625 36.23828125 C134.18062012 37.04668457 134.07217773 37.85508789 133.96044922 38.68798828 C133.84975098 39.55407715 133.73905273 40.42016602 133.625 41.3125 C132.39907577 50.43344085 130.9527309 59.50004872 129.35791016 68.5637207 C128.36960071 74.30427435 127.66790522 79.98693355 127.25048828 85.79833984 C127 88 127 88 126 90 C125.66253117 92.00719631 125.36913802 94.02188133 125.09765625 96.0390625 C124.92943359 97.25980469 124.76121094 98.48054688 124.58789062 99.73828125 C124.24081162 102.30589171 123.89444402 104.87359844 123.54882812 107.44140625 C122.09183256 118.00046919 122.09183256 118.00046919 120.99609375 121.97265625 C119.32084693 128.11550153 118.78965466 134.50837223 118 140.8125 C114.78186969 166.21813031 114.78186969 166.21813031 113 168 C112.89042969 167.14921875 112.78085938 166.2984375 112.66796875 165.421875 C110.81414165 151.2544159 108.78525334 137.12422737 106.19555664 123.07128906 C104.9089673 115.87036531 103.97066696 108.62405275 103 101.375 C101.82486684 92.60134102 100.5093704 83.96293221 98.6484375 75.30859375 C97.8012366 70.98582769 97.27940172 66.64322634 96.76904297 62.27172852 C96.13116204 56.86938789 95.34785435 51.49827695 94.5 46.125 C94.38140625 45.36477539 94.2628125 44.60455078 94.140625 43.82128906 C93.23872375 38.17215219 92.12408426 32.62042132 91 27 C69.55 27 48.1 27 26 27 Z " fill="#ED1E25" transform="translate(80,229)"/>
<path d="M0 0 C16.83 0 33.66 0 51 0 C51 76.89 51 153.78 51 233 C65.52 233 80.04 233 95 233 C95 250.16 95 267.32 95 285 C63.65 285 32.3 285 0 285 C0 190.95 0 96.9 0 0 Z " fill="#FEFDFD" transform="translate(799,256)"/>
<path d="M0 0 C17.16 0 34.32 0 52 0 C57.70452009 26.24079241 57.70452009 26.24079241 60.29101562 38.88867188 C61.40612577 44.29604203 62.61784704 49.65441299 64 55 C66.26313198 52.73686802 66.61436938 51.47241044 67.48046875 48.43359375 C67.7542334 47.48452148 68.02799805 46.53544922 68.31005859 45.55761719 C68.59961426 44.52797852 68.88916992 43.49833984 69.1875 42.4375 C69.64116943 40.85243652 69.64116943 40.85243652 70.10400391 39.23535156 C71.0771088 35.82572049 72.03959654 32.41322899 73 29 C73.32790527 27.83936035 73.65581055 26.6787207 73.99365234 25.48291016 C77.62543097 12.77599888 77.62543097 12.77599888 81 0 C98.16 0 115.32 0 133 0 C134.57768113 21.35937525 135.7626439 42.72647497 136.88720703 64.11376953 C137.67422712 79.05902084 138.50608517 93.99981265 139.44140625 108.93652344 C139.55355469 110.72751465 139.55355469 110.72751465 139.66796875 112.5546875 C139.76501099 114.07811768 139.76501099 114.07811768 139.86401367 115.63232422 C139.947535 117.08652509 140 118.54340259 140 120 C125.48 120 110.96 120 96 120 C95.5625 99.75 95.5625 99.75 95.43188477 93.43652344 C95.22965377 84.25755838 94.97709043 75.1354958 94 66 C93.81937012 66.68288086 93.63874023 67.36576172 93.45263672 68.06933594 C89.72996694 82.10871596 85.88359011 96.08778317 81.61083984 109.97021484 C81.00932802 111.96900353 80.44882567 113.9759626 79.89453125 115.98828125 C79 119 79 119 78 120 C75.6243148 120.0883967 73.27791326 120.11530305 70.90234375 120.09765625 C69.83905602 120.09553383 69.83905602 120.09553383 68.75428772 120.09336853 C66.48198288 120.08775443 64.20977525 120.07519963 61.9375 120.0625 C60.40039204 120.05748681 58.86328255 120.05292359 57.32617188 120.04882812 C53.55074358 120.03778042 49.77538829 120.02050641 46 120 C45.77860352 118.97342285 45.55720703 117.9468457 45.32910156 116.88916016 C44.48721474 112.98620691 43.64458424 109.0834145 42.80175781 105.18066406 C42.44088594 103.50915663 42.08020118 101.83760878 41.71972656 100.16601562 C39.18962316 88.43425125 36.61691298 76.7127108 34 65 C32.42580139 76.9280585 31.45894324 88.83675946 30.69775391 100.84448242 C29.56877522 118.43122478 29.56877522 118.43122478 28 120 C26.64905018 120.09268999 25.29332909 120.11747326 23.93920898 120.11352539 C23.07839218 120.11344986 22.21757538 120.11337433 21.33067322 120.11329651 C20.39526199 120.10813522 19.45985077 120.10297394 18.49609375 120.09765625 C17.54307877 120.0962413 16.59006378 120.09482635 15.60816956 120.09336853 C12.55124835 120.08775152 9.49439923 120.07519616 6.4375 120.0625 C4.37044376 120.05748719 2.30338638 120.05292391 0.23632812 120.04882812 C-4.84247588 120.03777656 -9.9212257 120.02050055 -15 120 C-14.32400018 111.7899734 -13.31947134 103.65882963 -12.1875 95.5 C-10.61786836 83.99441967 -9.22459068 72.47795029 -7.9375 60.9375 C-6.68883195 49.75603219 -5.31486336 38.6096378 -3.65625 27.48046875 C-2.81264559 21.81434091 -2.11789443 16.13207505 -1.4296875 10.4453125 C-0.99477368 6.95809442 -0.49698773 3.47891408 0 0 Z " fill="#000000" transform="translate(350,607)"/>
<path d="M0 0 C5.17772746 -0.12385084 10.35458788 -0.21445571 15.53344727 -0.2746582 C17.29401676 -0.29976061 19.05448247 -0.33385028 20.81469727 -0.37719727 C23.34938179 -0.43804115 25.88268575 -0.46625113 28.41796875 -0.48828125 C29.59325386 -0.52699089 29.59325386 -0.52699089 30.7922821 -0.56648254 C34.94943333 -0.56860301 36.49760352 -0.41088607 39.828125 2.31298828 C40.90320313 3.64305908 40.90320313 3.64305908 42 5 C42.58112549 5.60094482 43.16225098 6.20188965 43.76098633 6.82104492 C45.44999252 8.60506592 47.13243538 10.39505647 48.8125 12.1875 C49.7087207 13.13012695 49.7087207 13.13012695 50.62304688 14.09179688 C51.18701172 14.69443359 51.75097656 15.29707031 52.33203125 15.91796875 C52.84483643 16.46219482 53.3576416 17.0064209 53.88598633 17.56713867 C55 19 55 19 55 21 C55.66 21 56.32 21 57 21 C57 21.66 57 22.32 57 23 C57.66 23 58.32 23 59 23 C60.4453125 24.43359375 60.4453125 24.43359375 62.125 26.4375 C65.49378571 30.41621323 68.9703982 34.2770561 72.49609375 38.1171875 C74 40 74 40 74 42 C74.66 42 75.32 42 76 42 C75.70109863 41.3205835 75.40219727 40.64116699 75.09423828 39.94116211 C73.86163749 36.62810058 73.16933152 33.41114655 72.4921875 29.94140625 C72.36184113 29.27463364 72.23149475 28.60786102 72.09719849 27.92088318 C71.82421445 26.51698728 71.55373964 25.11260138 71.28564453 23.70776367 C70.87665555 21.5711488 70.45644522 19.43695381 70.03515625 17.30273438 C69.77015308 15.93242304 69.50580828 14.5619842 69.2421875 13.19140625 C69.0035498 11.95592041 68.76491211 10.72043457 68.51904297 9.44750977 C68 6 68 6 68 0 C80.87 0 93.74 0 107 0 C108.47429369 3.68573422 109.42064552 6.52206317 110.1484375 10.32421875 C110.34711426 11.34394775 110.54579102 12.36367676 110.75048828 13.41430664 C110.95657715 14.49446045 111.16266602 15.57461426 111.375 16.6875 C112.86568531 24.33567561 114.39228833 31.96529081 116.125 39.5625 C117.30559266 44.75550069 118.37799347 49.94293609 119.3125 55.1875 C120.77855845 63.24276622 122.60974828 71.2083904 124.4375 79.1875 C126.56682794 88.49615943 128.64465121 97.80674413 130.4375 107.1875 C130.60113037 108.03530029 130.76476074 108.88310059 130.93334961 109.7565918 C131.58451513 113.25065955 132 116.43307269 132 120 C126.5190965 120.09893328 121.03871355 120.17149865 115.55712891 120.21972656 C113.69277899 120.23983261 111.82849206 120.2671218 109.96435547 120.30175781 C107.28337052 120.35032121 104.60321977 120.37297838 101.921875 120.390625 C101.08944275 120.41127014 100.2570105 120.43191528 99.39935303 120.45318604 C93.61324425 120.45542576 93.61324425 120.45542576 90.44238281 118.10058594 C89 116 89 116 89 114 C88.34 114 87.68 114 87 114 C87 113.34 87 112.68 87 112 C86.34 112 85.68 112 85 112 C83.48259024 110.30096977 82.034872 108.53927277 80.625 106.75 C78.40770687 103.94686688 76.2694248 101.26298803 73.7109375 98.765625 C72 97 72 97 72 95 C71.34 95 70.68 95 70 95 C68.51953125 93.53125 68.51953125 93.53125 66.8125 91.5 C63.70077339 87.82607068 60.51847245 84.2313696 57.28515625 80.6640625 C56 79 56 79 56 77 C55.34 77 54.68 77 54 77 C56.71351104 95.87570427 56.71351104 95.87570427 60.484375 114.55859375 C61 117 61 117 61 120 C47.14 120 33.28 120 19 120 C16.75023453 109.8760554 16.75023453 109.8760554 16.19384766 106.32006836 C16.06660812 105.5163681 15.93936859 104.71266785 15.80827332 103.88461304 C15.67818375 103.04483917 15.54809418 102.20506531 15.4140625 101.33984375 C15.27241165 100.44125641 15.1307608 99.54266907 14.9848175 98.61685181 C14.68422955 96.70855174 14.38486234 94.80005903 14.0866394 92.89138794 C13.3070811 87.90323516 12.51824513 82.91654781 11.73046875 77.9296875 C11.57729691 76.95856522 11.42412506 75.98744293 11.26631165 74.9868927 C10.19017596 68.17302664 9.0850755 61.36473189 7.9375 54.5625 C6.33471025 45.01424921 4.73766011 35.46510478 3.16799927 25.91134644 C2.89198109 24.23651642 2.61424374 22.56196872 2.33468628 20.88772583 C1.94256289 18.53784988 1.55655786 16.18704138 1.171875 13.8359375 C1.05334671 13.13386673 0.93481842 12.43179596 0.81269836 11.70845032 C0.17464435 7.76382537 -0.11654408 3.99435404 0 0 Z M53 75 C54 77 54 77 54 77 Z " fill="#000000" transform="translate(763,607)"/>
<path d="M0 0 C2.52010807 2.02890056 4.72943102 4.02903683 6.84375 6.484375 C6.84375 7.144375 6.84375 7.804375 6.84375 8.484375 C7.50375 8.484375 8.16375 8.484375 8.84375 8.484375 C16.04595815 20.69611903 20.60939306 32.68777538 23.84375 46.484375 C24.11058594 47.59941406 24.37742187 48.71445312 24.65234375 49.86328125 C26.04270916 57.06441522 26.06876173 64.35995939 26.15625 71.671875 C26.18307861 73.18744995 26.18307861 73.18744995 26.21044922 74.73364258 C26.20003343 83.81844159 24.25228294 91.50702968 19.84375 99.484375 C19.18375 99.484375 18.52375 99.484375 17.84375 99.484375 C17.616875 100.061875 17.39 100.639375 17.15625 101.234375 C13.92790976 106.76867255 7.94506572 109.60370247 1.96875 111.30078125 C-1.06542433 112.07047989 -4.10132248 112.80184745 -7.15625 113.484375 C-8.29852051 113.74456421 -8.29852051 113.74456421 -9.46386719 114.01000977 C-29.12278659 117.4736732 -51.51632344 114.96486416 -69.15625 105.484375 C-69.15625 104.824375 -69.15625 104.164375 -69.15625 103.484375 C-70.80625 102.824375 -72.45625 102.164375 -74.15625 101.484375 C-74.15625 100.824375 -74.15625 100.164375 -74.15625 99.484375 C-74.81625 99.484375 -75.47625 99.484375 -76.15625 99.484375 C-91.45135508 82.02837207 -95.53305128 58.39054403 -95.46875 35.859375 C-95.48486328 34.72242188 -95.50097656 33.58546875 -95.51757812 32.4140625 C-95.52423664 20.80160533 -93.31947796 9.43176366 -85.40625 0.51171875 C-65.2238561 -18.65341739 -20.93139155 -15.15182821 0 0 Z M-52.15625 23.484375 C-56.13580787 31.44349074 -51.40117344 47.66952161 -50.21875 56.046875 C-49.96411987 57.86614502 -49.96411987 57.86614502 -49.7043457 59.72216797 C-48.72259935 69.61331877 -48.72259935 69.61331877 -44.65234375 78.3984375 C-40.60138328 80.16082719 -36.5840474 79.91578229 -32.21875 79.859375 C-31.32478516 79.87097656 -30.43082031 79.88257813 -29.50976562 79.89453125 C-28.64158203 79.89066406 -27.77339844 79.88679687 -26.87890625 79.8828125 C-26.09265869 79.87942871 -25.30641113 79.87604492 -24.49633789 79.87255859 C-21.4139219 79.3612345 -19.58831913 78.44720473 -17.15625 76.484375 C-15.13129131 68.00871205 -18.0005143 57.71504013 -19.46875 49.296875 C-19.78875977 47.34491211 -19.78875977 47.34491211 -20.11523438 45.35351562 C-21.66478924 32.78376545 -21.66478924 32.78376545 -28.15625 22.484375 C-31.5317768 20.7966116 -35.32248711 21.29977701 -39.03125 21.296875 C-39.84722656 21.28462891 -40.66320312 21.27238281 -41.50390625 21.25976562 C-42.29410156 21.25783203 -43.08429687 21.25589844 -43.8984375 21.25390625 C-44.97907471 21.24774292 -44.97907471 21.24774292 -46.08154297 21.24145508 C-48.50147676 21.52479635 -50.08972311 22.2067682 -52.15625 23.484375 Z " fill="#000000" transform="translate(743.15625,615.515625)"/>
<path d="M0 0 C1.64510941 0.00015915 3.29022379 0.00585551 4.93530273 0.01586914 C6.23164894 0.01799156 6.23164894 0.01799156 7.55418396 0.02015686 C10.32578941 0.025773 13.09731528 0.0383282 15.86889648 0.05102539 C17.74324428 0.05603831 19.61759334 0.06060158 21.49194336 0.06469727 C26.09679192 0.07574767 30.70158069 0.09302309 35.30639648 0.11352539 C34.71239733 9.03590949 32.77033359 17.55863642 30.74389648 26.23852539 C30.41065239 27.68631286 30.07796589 29.13422879 29.74584961 30.58227539 C28.94013069 34.09448656 28.12306423 37.60377314 27.30639648 41.11352539 C36.21639648 40.78352539 45.12639648 40.45352539 54.30639648 40.11352539 C55.45108398 34.60665039 55.45108398 34.60665039 56.61889648 28.98852539 C57.30442644 25.69993964 57.99102787 22.41158024 58.67797852 19.12329102 C59.05991724 17.29402116 59.44126397 15.4646274 59.8215332 13.63500977 C60.23046233 11.66895314 60.64321786 9.70369336 61.05639648 7.73852539 C61.27811523 6.67891602 61.49983398 5.61930664 61.72827148 4.52758789 C62.30639648 2.11352539 62.30639648 2.11352539 63.30639648 0.11352539 C76.17639648 0.11352539 89.04639648 0.11352539 102.30639648 0.11352539 C101.63124844 6.86500585 100.83459868 13.40316939 99.63452148 20.05493164 C99.39052612 21.43083466 99.39052612 21.43083466 99.14160156 22.83453369 C98.61731192 25.78244875 98.08713712 28.72926553 97.55639648 31.67602539 C97.19144951 33.71792939 96.82654085 35.75984023 96.46166992 37.80175781 C94.42352418 49.16266563 92.32361604 60.50401914 89.953125 71.80102539 C88.94748739 76.64771635 88.08174517 81.47602176 87.39624023 86.37915039 C87.24316406 87.43384521 87.09008789 88.48854004 86.93237305 89.57519531 C86.65589777 91.53038041 86.4009216 93.48884048 86.17651367 95.45068359 C84.77315448 105.28035303 81.23158461 110.26314913 76.30639648 120.11352539 C64.09639648 120.11352539 51.88639648 120.11352539 39.30639648 120.11352539 C39.88842901 114.87523268 40.43784871 109.95060711 41.42749023 104.82836914 C41.64083008 103.72041992 41.85416992 102.6124707 42.07397461 101.47094727 C42.29504883 100.34237305 42.51612305 99.21379883 42.74389648 98.05102539 C43.06970703 96.35236328 43.06970703 96.35236328 43.40209961 94.61938477 C44.54658937 88.71821684 45.84549607 82.95712703 47.30639648 77.11352539 C38.06639648 77.11352539 28.82639648 77.11352539 19.30639648 77.11352539 C18.64639648 81.40352539 17.98639648 85.69352539 17.30639648 90.11352539 C16.76801765 92.73211419 16.19852295 95.34477156 15.57983398 97.94555664 C15.16096924 99.72410034 15.16096924 99.72410034 14.73364258 101.53857422 C14.38640137 102.98643311 14.03916016 104.43429199 13.68139648 105.92602539 C12.56764648 110.60790039 11.45389648 115.28977539 10.30639648 120.11352539 C-3.22360352 120.11352539 -16.75360352 120.11352539 -30.69360352 120.11352539 C-30.69360352 112.23839221 -30.69360352 112.23839221 -29.96264648 109.13549805 C-29.72109833 108.08478622 -29.72109833 108.08478622 -29.47467041 107.0128479 C-29.29684021 106.2752121 -29.11901001 105.53757629 -28.93579102 104.77758789 C-28.75216003 103.98911469 -28.56852905 103.20064148 -28.3793335 102.38827515 C-27.78309478 99.83657239 -27.17596151 97.28760205 -26.56860352 94.73852539 C-26.15437627 92.97435568 -25.74080597 91.21003159 -25.32788086 89.44555664 C-22.79664718 78.65531163 -20.20635659 67.8791268 -17.58837891 57.10961914 C-15.99351154 50.50595108 -14.61141203 43.8910281 -13.33032227 37.21899414 C-12.58516725 33.58464914 -11.60719375 30.05648605 -10.58422852 26.49243164 C-9.01175678 20.52669458 -7.72561092 14.49112194 -6.40698242 8.46484375 C-6.19992676 7.53164307 -5.99287109 6.59844238 -5.77954102 5.63696289 C-5.59439941 4.79053223 -5.40925781 3.94410156 -5.21850586 3.07202148 C-4.28719204 -0.40286198 -3.90937501 0.12015727 0 0 Z " fill="#000000" transform="translate(121.693603515625,606.886474609375)"/>
<path d="M0 0 C20.13 0 40.26 0 61 0 C63.8125 26.9375 63.8125 26.9375 64.67895508 35.26538086 C66.01264302 48.01865927 67.42146542 60.75800323 68.97305298 73.48666382 C69.96913552 81.67080391 70.87110906 89.85844026 71.6875 98.0625 C71.81705078 99.31353516 71.94660156 100.56457031 72.08007812 101.85351562 C72.20189453 103.06845703 72.32371094 104.28339844 72.44921875 105.53515625 C72.55580811 106.590979 72.66239746 107.64680176 72.7722168 108.73461914 C73.03358163 112.48140868 73 116.24410551 73 120 C58.48 120 43.96 120 29 120 C28.67 113.73 28.34 107.46 28 101 C17.44 101 6.88 101 -4 101 C-4.99 103.97 -5.98 106.94 -7 110 C-8.65 113.3 -10.3 116.6 -12 120 C-26.52 120 -41.04 120 -56 120 C-54.42487534 115.27462601 -52.64707377 111.12747031 -50.375 106.75 C-47.39414418 100.90839611 -44.62151177 95.01111805 -42 89 C-39.17159944 82.52260925 -36.13981189 76.19426284 -32.9296875 69.8984375 C-30.61874111 65.33091992 -28.51361713 60.7055053 -26.5 56 C-24.21142601 50.65371446 -21.76714915 45.43063379 -19.125 40.25 C-15.6236057 33.38405143 -12.42295642 26.40746458 -9.32080078 19.35253906 C-6.41051043 12.77216229 -3.23105396 6.46210792 0 0 Z M23 36 C22.64808594 36.88558594 22.29617188 37.77117188 21.93359375 38.68359375 C18.02954412 48.48653124 14.03375042 58.24978079 10 68 C15.28 68 20.56 68 26 68 C25.67 57.44 25.34 46.88 25 36 C24.34 36 23.68 36 23 36 Z " fill="#000000" transform="translate(258,607)"/>
<path d="M0 0 C1.00780518 0.00080566 2.01561035 0.00161133 3.05395508 0.00244141 C37.61812011 0.27781006 37.61812011 0.27781006 47.4375 5.1875 C47.84814453 6.97827148 47.84814453 6.97827148 48.0703125 9.30859375 C48.15410156 10.16259766 48.23789062 11.01660156 48.32421875 11.89648438 C48.40285156 12.79689453 48.48148438 13.69730469 48.5625 14.625 C48.64886719 15.49060547 48.73523438 16.35621094 48.82421875 17.24804688 C49.38654696 23.24175152 49.53942754 29.16973015 49.4375 35.1875 C40.97897945 35.31374658 40.97897945 35.31374658 38.29296875 34.6875 C34.61757616 34.0439292 31.01024217 34.06390899 27.29296875 34.08984375 C26.52318192 34.0912587 25.75339508 34.09267365 24.96028137 34.09413147 C22.51514712 34.09970394 20.07010632 34.11225129 17.625 34.125 C15.96158987 34.13001856 14.2981783 34.13458085 12.63476562 34.13867188 C8.56897472 34.14966434 4.50325317 34.1669099 0.4375 34.1875 C-0.80796405 36.67842811 -0.3392578 37.59830733 0.4375 40.1875 C6.57700151 41.3190944 12.69611363 42.24151939 18.90893555 42.83959961 C36.33861339 44.54465649 52.06185778 47.80968713 64.4375 61.1875 C72.24752641 72.04326655 75.79333207 83.33204193 75.8125 96.625 C75.84923828 97.96014648 75.84923828 97.96014648 75.88671875 99.32226562 C75.91886047 106.65593454 74.34149888 112.93150125 69.375 118.5 C56.34268801 125.98664731 42.37935692 126.5620596 27.75 126.5 C26.93268402 126.49917419 26.11536804 126.49834839 25.27328491 126.49749756 C8.2976156 126.45804968 -7.94294503 124.61843503 -24.5625 121.1875 C-31.86306644 95.06110742 -31.86306644 95.06110742 -31.5625 85.1875 C-27.81015922 85.6590243 -24.18555308 86.24441024 -20.515625 87.16015625 C-8.59416205 89.99921293 2.92923291 90.55566082 15.125 90.5 C16.31301208 90.49590622 16.31301208 90.49590622 17.52502441 90.49172974 C19.79164925 90.47924573 22.05776557 90.45598642 24.32421875 90.42578125 C25.01289536 90.41822815 25.70157196 90.41067505 26.41111755 90.40289307 C30.047489 90.36596479 30.047489 90.36596479 33.4375 89.1875 C32.7775 87.2075 32.1175 85.2275 31.4375 83.1875 C30.60726318 83.11756836 29.77702637 83.04763672 28.92163086 82.97558594 C-8.37741431 79.75671586 -8.37741431 79.75671586 -21.5625 72.1875 C-22.5525 71.65125 -23.5425 71.115 -24.5625 70.5625 C-25.2225 70.10875 -25.8825 69.655 -26.5625 69.1875 C-26.5625 68.5275 -26.5625 67.8675 -26.5625 67.1875 C-27.2225 67.1875 -27.8825 67.1875 -28.5625 67.1875 C-39.45867774 53.07077712 -43.23728548 36.72560208 -41.5625 19.1875 C-40.42664771 13.56160073 -38.13835719 10.24231673 -33.5625 6.8125 C-28.247924 3.64132324 -22.59757717 2.319586 -16.5625 1.1875 C-15.67046875 1.001875 -14.7784375 0.81625 -13.859375 0.625 C-9.23323749 0.01110498 -4.66222746 -0.00389395 0 0 Z " fill="#000000" transform="translate(924.5625,603.8125)"/>
<path d="M0 0 C8.58027523 -0.02325306 17.16053711 -0.04098083 25.74083614 -0.05181217 C29.72575436 -0.05701277 33.7106509 -0.0640587 37.69555664 -0.07543945 C41.54701002 -0.08636923 45.39844265 -0.09229806 49.24991035 -0.09487724 C50.71337778 -0.09671341 52.17684416 -0.10029871 53.64030266 -0.10573006 C65.21955763 -0.14696363 75.37504815 -0.01925485 86 5 C86.6909375 5.30292969 87.381875 5.60585938 88.09375 5.91796875 C96.94099043 10.4995754 102.48078502 20.45796321 105.5 29.625 C109.08223235 43.17235142 110.564717 60.84582806 104.29296875 73.796875 C99.79237041 81.46556824 94.22529102 86.21215792 85.81616211 89.08935547 C81.55787238 90.10550419 77.79211423 90.25508739 73.44140625 90.1953125 C72.65225327 90.1924826 71.86310028 90.18965271 71.05003357 90.18673706 C68.55402828 90.17563057 66.05839502 90.15054455 63.5625 90.125 C61.86003126 90.11495785 60.15755684 90.10583417 58.45507812 90.09765625 C54.30324424 90.0757226 50.15168498 90.04125977 46 90 C46.144375 90.99257813 46.28875 91.98515625 46.4375 93.0078125 C46.62549024 94.38014127 46.81296142 95.75254121 47 97.125 C47.09539063 97.77082031 47.19078125 98.41664063 47.2890625 99.08203125 C48.23800853 106.19912647 48 112.60183196 48 120 C34.14 120 20.28 120 6 120 C4.87545994 113.25275962 4.87545994 113.25275962 4.75048828 109.69018555 C4.7200946 108.88598175 4.68970093 108.08177795 4.65838623 107.25320435 C4.6293219 106.3897641 4.60025757 105.52632385 4.5703125 104.63671875 C4.49807047 102.72142851 4.42563299 100.80614563 4.35302734 98.89086914 C4.31602722 97.88089874 4.2790271 96.87092834 4.24090576 95.83035278 C3.47362203 75.02500377 2.36785717 54.25713399 0.96533203 33.48510742 C0.22469988 22.29458027 -0.14852652 11.21564832 0 0 Z M42 30 C41.76110345 39.59567793 42.21168141 48.53149174 44 58 C46.56364483 58.10845031 49.12266279 58.18749744 51.6875 58.25 C52.40873047 58.28351562 53.12996094 58.31703125 53.87304688 58.3515625 C57.61873334 58.41997686 59.65555807 58.1844431 63.02734375 56.37890625 C65.2673146 54.12703916 65.2673146 54.12703916 65.3046875 51.01171875 C65.16289063 49.91472656 65.02109375 48.81773437 64.875 47.6875 C64.73320313 46.53894531 64.59140625 45.39039063 64.4453125 44.20703125 C64.29835938 43.14871094 64.15140625 42.09039063 64 41 C63.95617187 40.24074219 63.91234375 39.48148438 63.8671875 38.69921875 C63.79515735 36.67561329 63.79515735 36.67561329 63 34 C58.27978217 30.17279636 53.65173408 29.87335072 47.75 29.9375 C46.67234375 29.94652344 45.5946875 29.95554687 44.484375 29.96484375 C43.25460937 29.98224609 43.25460937 29.98224609 42 30 Z " fill="#000000" transform="translate(489,607)"/>
<path d="M0 0 C-0.70572565 2.12294582 -1.41286781 4.24539993 -2.12207031 6.3671875 C-2.69303041 8.07943269 -3.26029175 9.79291722 -3.82324219 11.5078125 C-4.65271111 14.01290682 -5.51141155 16.5064856 -6.375 19 C-6.6534375 19.85722656 -6.931875 20.71445312 -7.21875 21.59765625 C-9.35907726 27.68119905 -9.35907726 27.68119905 -12.26171875 29.125 C-15.70871986 28.9676476 -19.02810566 28.54063736 -22.4375 28 C-33.21945315 26.46486648 -43.45729219 27.27343764 -54 30 C-54 30.66 -54 31.32 -54 32 C-55.875 34.125 -55.875 34.125 -58 36 C-58.66 36 -59.32 36 -60 36 C-60.43079727 38.18988614 -60.86090974 40.37990778 -61.2890625 42.5703125 C-61.83053408 45.18246659 -62.41058007 47.77175303 -63.0234375 50.3671875 C-66.62190601 65.06293293 -66.62190601 65.06293293 -66 80 C-60.35669559 85.64330441 -54.39025295 85.29113556 -46.890625 85.32348633 C-37.92602923 85.20539888 -29.6172702 83.32526143 -21 81 C-19.82179688 80.69191406 -18.64359375 80.38382813 -17.4296875 80.06640625 C-14.94497148 79.40233253 -12.46955375 78.71802003 -10 78 C-10.59474262 85.74817466 -12.41641695 92.90255156 -14.5 100.375 C-14.82097656 101.54933594 -15.14195313 102.72367188 -15.47265625 103.93359375 C-17.77632914 112.32898742 -17.77632914 112.32898742 -19 116 C-29.46361004 120.93566511 -42.47097672 121.37170258 -53.8125 121.3125 C-55.51817139 121.30404053 -55.51817139 121.30404053 -57.25830078 121.29541016 C-70.66057834 121.10244793 -85.22447957 119.77428655 -95.74609375 110.453125 C-97.0625 108.9375 -97.0625 108.9375 -99 106 C-99.8353125 104.7625 -99.8353125 104.7625 -100.6875 103.5 C-109.02807193 87.61319632 -104.76684942 63.65502448 -100 47 C-99.80744629 46.28537598 -99.61489258 45.57075195 -99.41650391 44.83447266 C-95.01388581 28.57384223 -87.469276 12.93198621 -72.8515625 3.49609375 C-51.75060337 -7.57468343 -22.15760023 -8.55205623 0 0 Z " fill="#000000" transform="translate(104,609)"/>
<path d="M0 0 C13.2 0 26.4 0 40 0 C46.82214983 56.24833048 46.82214983 56.24833048 49.8125 81.9375 C49.91114349 82.78204742 50.00978699 83.62659485 50.11141968 84.49673462 C51.49121669 96.32275639 52.77497259 108.15696246 54 120 C47.8944529 120.02464513 41.78893449 120.04283371 35.68334961 120.05493164 C33.60456844 120.05997288 31.52579084 120.06680574 29.44702148 120.07543945 C26.46597414 120.08751422 23.48497351 120.09323024 20.50390625 120.09765625 C19.10078941 120.10539818 19.10078941 120.10539818 17.66932678 120.11329651 C16.37810158 120.11340981 16.37810158 120.11340981 15.06079102 120.11352539 C14.29912125 120.115746 13.53745148 120.11796661 12.75270081 120.12025452 C11 120 11 120 10 119 C9.80558801 117.61703721 9.67311856 116.22527887 9.56689453 114.83276367 C9.49645432 113.94114029 9.4260141 113.04951691 9.35343933 112.13087463 C9.24422905 110.66423622 9.24422905 110.66423622 9.1328125 109.16796875 C8.96932451 107.08284467 8.80583147 104.99772099 8.64233398 102.91259766 C8.55797089 101.81457825 8.47360779 100.71655884 8.38668823 99.58526611 C6.68007324 77.33039452 6.68007324 77.33039452 4.4375 55.125 C3.23369604 44.49126081 2.23267314 33.84888268 1.3125 23.1875 C1.24570038 22.4254425 1.17890076 21.66338501 1.1100769 20.87823486 C0.92018698 18.70425954 0.73469908 16.5299566 0.55078125 14.35546875 C0.44419189 13.10403076 0.33760254 11.85259277 0.2277832 10.56323242 C0.00310109 7.04851059 0 3.52189602 0 0 Z " fill="#000000" transform="translate(597,607)"/>
<path d="M0 0 C11.4652184 1.04229258 17.11429251 2.60951321 24.875 10.75 C28.38451557 15.06876857 30.32348985 19.73210318 32 25 C32.53173828 26.5159375 32.53173828 26.5159375 33.07421875 28.0625 C37.11455986 42.56042452 35.14744705 59.88325651 28 73 C23.33205274 80.46662704 17.32183622 86.73653481 9 90 C4.545 90.495 4.545 90.495 0 91 C0 60.97 0 30.94 0 0 Z " fill="#ED2028" transform="translate(478,307)"/>
<path d="M0 0 C0.33 0 0.66 0 1 0 C2.35005097 8.37895499 3.48174613 16.74832826 4.375 25.1875 C5.52542943 35.79901311 6.74133236 46.40092914 8 57 C9.41177696 68.89007925 10.77492436 80.78361744 12.04882812 92.68945312 C12.21608398 94.22956055 12.21608398 94.22956055 12.38671875 95.80078125 C12.48170654 96.68934814 12.57669434 97.57791504 12.67456055 98.4934082 C13.00170899 101.01316294 13.50168785 103.50843924 14 106 C14 109.63 14 113.26 14 117 C5.09 117 -3.82 117 -13 117 C-13 110.43980347 -12.85369228 104.46238424 -11.9765625 98.046875 C-11.87091476 97.23206665 -11.76526703 96.4172583 -11.65641785 95.57775879 C-11.43257167 93.85314091 -11.20612347 92.12885895 -10.97720337 90.40490723 C-10.38329344 85.92801715 -9.80934984 81.44860394 -9.23828125 76.96875 C-9.12685287 76.09559143 -9.0154245 75.22243286 -8.90061951 74.32281494 C-7.94859005 66.77348279 -7.21941584 59.21687596 -6.59814453 51.63354492 C-6.16716141 46.48086786 -5.4502239 41.47190134 -4.5 36.38671875 C-3.62203839 30.43990065 -3.22470637 24.43892242 -2.78515625 18.44555664 C-2.29679312 12.17341045 -1.38154399 6.13814628 0 0 Z " fill="#ED2027" transform="translate(355,334)"/>
<path d="M0 0 C2.64 0 5.28 0 8 0 C8.99 2.97 9.98 5.94 11 9 C12.32 6.03 13.64 3.06 15 0 C17.64 0 20.28 0 23 0 C23.50612064 2.8740422 24.00506541 5.74902873 24.5 8.625 C24.64308594 9.43324219 24.78617188 10.24148438 24.93359375 11.07421875 C25.67876251 15.43877864 26.17272306 19.55238129 26 24 C23.69 24 21.38 24 19 24 C18.34 21.36 17.68 18.72 17 16 C16.01 18.64 15.02 21.28 14 24 C12.02 24 10.04 24 8 24 C7.34 21.69 6.68 19.38 6 17 C5.34 19.31 4.68 21.62 4 24 C1.69 24 -0.62 24 -3 24 C-3.1754368 18.49567039 -2.5274161 13.46337653 -1.5 8.0625 C-1.35691406 7.28326172 -1.21382812 6.50402344 -1.06640625 5.70117188 C-0.71645276 3.7997579 -0.35900335 1.89972607 0 0 Z " fill="#000000" transform="translate(692,747)"/>
<path d="M0 0 C0 0.99 0 1.98 0 3 C-3.43509272 5.08559201 -3.43509272 5.08559201 -6.0625 4.6875 C-6.701875 4.460625 -7.34125 4.23375 -8 4 C-11.13349732 2.95550089 -11.98968256 3.06576355 -15 4 C-15.020625 5.27875 -15.04125 6.5575 -15.0625 7.875 C-15.07410156 8.59429688 -15.08570313 9.31359375 -15.09765625 10.0546875 C-15.12649242 12.08185404 -15.12649242 12.08185404 -14 14 C-11.69 14 -9.38 14 -7 14 C-6.67 13.34 -6.34 12.68 -6 12 C-7.98 12 -9.96 12 -12 12 C-12 10.02 -12 8.04 -12 6 C-7.38 6 -2.76 6 2 6 C2.49864779 10.737154 2.56120334 13.98771363 -0.1875 18 C-2.51777401 20.45911127 -3.79696905 20.9679032 -7.1875 21.50390625 C-16.02228498 21.65181002 -16.02228498 21.65181002 -20 19 C-20 18.34 -20 17.68 -20 17 C-20.66 17 -21.32 17 -22 17 C-24.47475308 13.28787038 -24.69323587 9.30796574 -24 5 C-22.125 1.5 -22.125 1.5 -20 -1 C-19.34 -1 -18.68 -1 -18 -1 C-18 -1.66 -18 -2.32 -18 -3 C-10.82287141 -5.29668115 -6.05678735 -3.95545297 0 0 Z " fill="#000000" transform="translate(622,750)"/>
<path d="M0 0 C3.58875 -0.061875 3.58875 -0.061875 7.25 -0.125 C7.99668945 -0.14320801 8.74337891 -0.16141602 9.51269531 -0.18017578 C13.192249 -0.21085522 15.92912147 -0.11122899 19 2 C22.38146193 5.86452792 22.50613376 9.69390576 22.359375 14.625 C21.84719806 18.00982152 20.4956694 19.71824512 18 22 C14.31602884 24.45598077 11.55276192 24.2271532 7.3125 24.125 C4.899375 24.08375 2.48625 24.0425 0 24 C0 16.08 0 8.16 0 0 Z M7 6 C7 9.96 7 13.92 7 18 C8.98 17.67 10.96 17.34 13 17 C14.7117247 12.95587035 14.7117247 12.95587035 14.5 8.6875 C12.31134979 6.22526851 10.18647425 6.27708472 7 6 Z " fill="#000000" transform="translate(524,747)"/>
<path d="M0 0 C2.64 0 5.28 0 8 0 C8 2.97 8 5.94 8 9 C10.31 9 12.62 9 15 9 C15 6.03 15 3.06 15 0 C17.31 0 19.62 0 22 0 C22 7.92 22 15.84 22 24 C19.69 24 17.38 24 15 24 C15 21.03 15 18.06 15 15 C12.69 15 10.38 15 8 15 C8 17.97 8 20.94 8 24 C5.36 24 2.72 24 0 24 C0 16.08 0 8.16 0 0 Z " fill="#000000" transform="translate(284,747)"/>
<path d="M0 0 C2.3925 -0.103125 4.785 -0.20625 7.25 -0.3125 C7.99668945 -0.35802002 8.74337891 -0.40354004 9.51269531 -0.45043945 C13.24109965 -0.52815633 14.71878262 -0.25829684 17.4921875 2.2890625 C19.52395906 5.94204038 19.04952793 8.02678713 18 12 C17.34 12.66 16.68 13.32 16 14 C16.34033435 17.40334347 17.96662226 19.34776816 20 22 C20 22.66 20 23.32 20 24 C16.94925785 24.28780586 14.03816258 24.45787911 11 24 C8.9375 21.5 8.9375 21.5 8 19 C7.67 20.65 7.34 22.3 7 24 C4.69 24 2.38 24 0 24 C0 16.08 0 8.16 0 0 Z M7 5 C7 6.98 7 8.96 7 11 C8.32 10.34 9.64 9.68 11 9 C10.67 8.01 10.34 7.02 10 6 C9.01 5.67 8.02 5.34 7 5 Z " fill="#000000" transform="translate(483,747)"/>
<path d="M0 0 C2.97 0 5.94 0 9 0 C17 17.14285714 17 17.14285714 17 24 C14.36 24 11.72 24 9 24 C9 22.68 9 21.36 9 20 C6.03 20 3.06 20 0 20 C0 21.32 0 22.64 0 24 C-2.64 24 -5.28 24 -8 24 C-6.5102402 15.50836915 -3.31428738 7.9105161 0 0 Z M4 7 C3.67 9.31 3.34 11.62 3 14 C4.32 13.67 5.64 13.34 7 13 C6.34 11.02 5.68 9.04 5 7 C4.67 7 4.34 7 4 7 Z " fill="#000000" transform="translate(652,747)"/>
<path d="M0 0 C3.3 0 6.6 0 10 0 C18 20.45849802 18 20.45849802 18 24 C15.36 24 12.72 24 10 24 C10 22.68 10 21.36 10 20 C7.03 20 4.06 20 1 20 C0.67 21.32 0.34 22.64 0 24 C-2.31 24 -4.62 24 -7 24 C-6.31184495 18.61671112 -4.69258365 13.73143827 -2.9375 8.625 C-2.51500977 7.37783203 -2.51500977 7.37783203 -2.08398438 6.10546875 C-1.39342899 4.06891559 -0.69727821 2.03426119 0 0 Z M5 7 C4.34 9.31 3.68 11.62 3 14 C4.65 14 6.3 14 8 14 C7.34 11.69 6.68 9.38 6 7 C5.67 7 5.34 7 5 7 Z " fill="#000000" transform="translate(444,747)"/>
<path d="M0 0 C5.28 0 10.56 0 16 0 C16 1.98 16 3.96 16 6 C13.03 6 10.06 6 7 6 C7 6.99 7 7.98 7 9 C9.64 9 12.28 9 15 9 C15 10.98 15 12.96 15 15 C12.36 15 9.72 15 7 15 C7 15.99 7 16.98 7 18 C9.97 18 12.94 18 16 18 C16 19.98 16 21.96 16 24 C10.72 24 5.44 24 0 24 C0 16.08 0 8.16 0 0 Z " fill="#000000" transform="translate(330,747)"/>
<path d="M0 0 C0 2.97 0 5.94 0 9 C-0.66 9 -1.32 9 -2 9 C-2 8.34 -2 7.68 -2 7 C-4.64 7 -7.28 7 -10 7 C-10 10.3 -10 13.6 -10 17 C-7.36 17 -4.72 17 -2 17 C-2 16.34 -2 15.68 -2 15 C-1.34 15 -0.68 15 0 15 C0 17.97 0 20.94 0 24 C-11.10820358 25.0383039 -11.10820358 25.0383039 -15.19921875 22.79296875 C-18.41594602 19.46719987 -19.37016441 16.46357771 -19.5625 11.875 C-19.28830032 7.85949804 -18.7808429 5.05892719 -16 2 C-10.75647237 -1.45596139 -5.95410094 -1.98470031 0 0 Z " fill="#000000" transform="translate(417,747)"/>
<path d="M0 0 C4.95 0 9.9 0 15 0 C15 1.98 15 3.96 15 6 C12.36 6 9.72 6 7 6 C7 6.99 7 7.98 7 9 C9.64 9 12.28 9 15 9 C15 10.98 15 12.96 15 15 C12.36 15 9.72 15 7 15 C7 15.99 7 16.98 7 18 C9.64 18 12.28 18 15 18 C15 19.98 15 21.96 15 24 C10.05 24 5.1 24 0 24 C0 16.08 0 8.16 0 0 Z " fill="#000000" transform="translate(741,747)"/>
<path d="M0 0 C5.94 0 11.88 0 18 0 C18 1.98 18 3.96 18 6 C16.35 6 14.7 6 13 6 C13 11.94 13 17.88 13 24 C10.36 24 7.72 24 5 24 C5 18.06 5 12.12 5 6 C3.35 6 1.7 6 0 6 C0 4.02 0 2.04 0 0 Z " fill="#000000" transform="translate(244,747)"/>
</svg>
