<?xml version="1.0" standalone="no"?>
<svg version="1.0" xmlns="http://www.w3.org/2000/svg"
 width="256.000000pt" height="256.000000pt" viewBox="0 0 256.000000 256.000000"
 preserveAspectRatio="xMidYMid meet">

<g transform="translate(0.000000,256.000000) scale(0.100000,-0.100000)"
stroke="none">
<path d="M0 1280 l0 -520 1280 0 1280 0 0 520 0 520 -1280 0 -1280 0 0 -520z
m288 353 c30 -201 52 -337 55 -340 2 -1 19 92 37 207 l34 210 98 0 98 0 1
-382 c1 -229 4 -369 9 -348 5 19 18 103 30 185 12 83 30 202 40 265 10 63 24
152 30 198 l12 82 104 0 c121 0 104 21 133 -175 51 -342 83 -550 87 -554 2 -2
4 161 4 362 l0 367 112 0 c131 0 176 -16 233 -83 l35 -41 -6 50 c-3 27 -7 55
-10 62 -2 9 18 12 80 12 l82 0 29 -221 c15 -121 31 -235 34 -252 5 -22 16 37
39 198 18 127 32 240 32 253 l0 22 225 0 226 0 -3 -77 -3 -78 -67 -3 -68 -3 0
-94 0 -95 70 0 70 0 0 -80 0 -80 -70 0 -70 0 0 -100 0 -100 70 0 70 0 0 -75 0
-75 -150 0 -150 0 -2 372 -3 371 -48 -309 c-27 -170 -53 -337 -59 -371 l-11
-63 -69 -2 c-37 -1 -78 -2 -90 -2 -26 -1 -24 -10 -74 289 -32 192 -40 223 -46
192 -10 -47 -29 -84 -62 -120 l-25 -27 48 -163 48 -162 -75 -3 c-41 -2 -76 -1
-78 1 -2 2 -20 63 -39 137 -18 73 -36 135 -39 137 -3 3 -12 3 -21 0 -12 -5
-15 -29 -15 -142 l0 -135 -149 0 -149 0 -7 65 -7 65 -58 0 c-65 0 -63 2 -75
-82 l-6 -48 -155 0 -154 0 -1 173 -1 172 -19 -105 c-10 -58 -23 -135 -30 -172
l-11 -68 -43 0 -43 0 -16 88 c-8 48 -24 134 -33 192 l-18 105 -3 -192 -2 -193
-75 0 -75 0 0 430 0 430 98 0 98 0 12 -77z m2062 -278 l0 -355 65 0 65 0 0
-75 0 -75 -145 0 -145 0 0 430 0 430 80 0 80 0 0 -355z"/>
<path d="M1210 1420 c0 -155 3 -161 59 -114 72 61 60 215 -20 243 -18 6 -34
11 -35 11 -2 0 -4 -63 -4 -140z"/>
<path d="M821 1342 c-7 -64 -15 -141 -18 -169 l-6 -53 42 0 c22 0 41 3 41 8
-1 27 -39 324 -42 327 -2 2 -10 -49 -17 -113z"/>
</g>
</svg>
