<?xml version="1.0" standalone="no"?>
<svg version="1.0" xmlns="http://www.w3.org/2000/svg"
 width="256.000000pt" height="256.000000pt" viewBox="0 0 256.000000 256.000000"
 preserveAspectRatio="xMidYMid meet">

<g transform="translate(0.000000,256.000000) scale(0.100000,-0.100000)"
stroke="none">
<path d="M229 2257 c-39 -26 -69 -79 -69 -122 0 -28 -4 -32 -43 -42 -58 -16
-94 -47 -108 -93 -22 -73 11 -148 77 -176 45 -19 81 -17 131 6 l43 19 73 -67
c40 -37 101 -93 137 -124 l65 -58 -102 0 c-92 0 -104 -2 -129 -23 -35 -31 -37
-77 -4 -112 23 -24 27 -25 165 -25 l142 0 17 -82 c26 -133 88 -249 182 -342
41 -40 46 -48 33 -60 -8 -8 -55 -49 -105 -93 -51 -43 -138 -119 -195 -169
l-104 -91 -43 19 c-102 45 -202 -33 -189 -148 6 -57 45 -101 104 -117 42 -11
43 -12 43 -52 0 -45 26 -92 62 -111 13 -8 48 -13 79 -14 49 0 61 4 87 28 37
35 55 95 42 141 -9 32 -7 35 48 86 31 29 81 73 111 99 l55 46 18 -59 c52 -169
182 -258 393 -268 159 -8 270 26 361 109 46 42 104 145 104 184 0 13 4 25 9
28 5 4 56 -36 113 -87 l103 -94 0 -72 c0 -71 1 -73 37 -107 32 -29 45 -34 87
-34 28 0 62 5 76 12 34 15 64 65 67 113 3 35 7 40 35 46 163 33 160 254 -3
285 -21 4 -45 -1 -73 -14 l-42 -21 -52 46 c-28 26 -60 55 -72 65 -11 11 -80
72 -152 135 -73 64 -133 118 -133 121 0 2 27 34 61 70 88 97 169 275 169 374
l0 28 148 0 c142 0 149 1 170 23 29 31 29 87 1 113 -17 15 -41 20 -130 24
l-108 5 139 123 c137 120 140 122 164 107 38 -25 115 -29 156 -8 124 65 96
247 -42 269 -33 6 -38 10 -38 33 0 15 -10 47 -22 71 -39 77 -131 103 -199 57
-45 -30 -59 -60 -59 -132 l-1 -60 -121 -105 c-67 -58 -125 -106 -128 -108 -4
-1 -27 27 -50 63 -58 89 -135 155 -244 209 -199 99 -391 99 -591 1 -105 -51
-191 -125 -250 -214 -22 -33 -44 -61 -48 -61 -5 0 -64 49 -130 109 l-122 108
3 56 c3 44 -1 64 -17 91 -40 65 -130 85 -192 43z m150 -53 c21 -25 23 -35 18
-89 l-6 -60 72 -64 c40 -35 102 -93 140 -128 l67 -65 -25 -80 c-14 -43 -25
-88 -25 -99 0 -24 -24 -25 -48 -1 -10 9 -67 62 -128 116 -60 55 -126 116 -146
135 l-38 35 -31 -23 c-18 -13 -51 -26 -75 -29 -39 -4 -47 -1 -79 31 -70 70
-32 162 73 174 28 3 52 9 52 12 1 3 2 30 3 60 2 46 7 57 36 83 29 26 39 30 75
25 28 -4 49 -15 65 -33z m1929 20 c35 -24 55 -72 48 -115 -7 -44 3 -54 52 -51
63 5 112 -43 112 -109 0 -88 -107 -128 -189 -70 -16 12 -32 21 -35 21 -4 0
-80 -67 -171 -150 -90 -82 -170 -150 -178 -150 -10 0 -17 16 -21 48 -4 26 -15
72 -26 102 l-19 55 42 35 c23 19 86 75 142 125 l100 90 -3 53 c-6 89 23 130
93 131 17 1 41 -6 53 -15z m-912 -79 c139 -27 273 -106 361 -214 38 -47 93
-139 93 -156 0 -3 -256 -5 -570 -5 -485 0 -570 2 -570 14 0 27 101 165 158
216 102 92 266 156 404 159 25 1 81 -6 124 -14z m483 -459 c6 -25 11 -54 11
-65 0 -21 -1 -21 -615 -21 -485 0 -615 3 -615 13 0 11 15 75 25 105 3 9 131
12 593 12 l590 0 11 -44z m342 -136 c21 -12 25 -40 7 -58 -17 -17 -1879 -17
-1896 0 -7 7 -12 19 -12 28 0 9 5 21 12 28 16 16 1859 18 1889 2z m-321 -128
c0 -41 -42 -177 -72 -235 -68 -131 -215 -246 -373 -294 -83 -25 -267 -25 -350
0 -212 64 -373 221 -428 417 -14 49 -21 100 -18 123 1 4 280 7 621 7 595 0
620 -1 620 -18z m-37 -646 c100 -89 199 -178 219 -195 l38 -33 29 21 c44 32
81 35 119 11 58 -36 68 -102 23 -152 -22 -25 -39 -33 -77 -37 l-49 -6 -1 -50
c0 -61 -15 -90 -56 -111 -26 -13 -38 -14 -70 -5 -59 18 -83 80 -57 148 12 31
25 16 -169 191 -84 76 -92 87 -92 120 0 35 -30 194 -45 241 -3 12 -4 21 0 21
3 0 88 -74 188 -164z m-1002 68 c-11 -43 -23 -109 -26 -147 l-7 -67 -129 -113
c-129 -111 -130 -112 -123 -147 11 -59 8 -90 -13 -118 -26 -35 -73 -49 -112
-32 -42 17 -59 48 -63 111 -3 52 -4 54 -33 57 -102 10 -150 99 -90 170 37 44
69 48 127 18 l49 -26 52 48 c48 44 251 223 341 300 21 18 40 31 42 29 2 -2 -5
-39 -15 -83z m139 45 c30 -13 56 -24 58 -25 3 -1 -17 -107 -22 -112 -5 -4 -92
33 -123 53 -19 13 -20 19 -12 52 16 61 18 65 32 60 6 -3 37 -16 67 -28z m639
9 c5 -13 11 -37 15 -54 7 -29 5 -31 -58 -62 -36 -18 -69 -32 -74 -32 -5 0 -13
25 -19 56 -10 55 -10 56 17 65 14 5 42 18 61 28 45 25 48 25 58 -1z m-426 -65
l47 -6 0 -58 0 -59 -35 0 c-45 0 -133 19 -140 30 -3 5 -3 32 1 61 l7 51 36 -6
c20 -4 57 -9 84 -13z m252 -15 c14 -82 14 -81 -40 -94 -27 -7 -67 -13 -87 -13
l-38 -1 0 60 0 60 38 1 c20 1 51 5 67 9 50 13 54 11 60 -22z m-499 -80 l71
-33 -5 -60 c-2 -33 -6 -62 -8 -64 -5 -6 -113 61 -134 84 -15 16 -18 29 -13 63
3 23 8 42 12 42 3 0 38 -14 77 -32z m708 10 c14 -54 7 -74 -36 -105 -24 -17
-57 -37 -74 -46 l-32 -16 -6 31 c-16 80 -11 91 57 124 78 38 83 39 91 12z
m-185 -141 c1 -32 -3 -39 -25 -47 -31 -12 -163 -35 -168 -29 -2 2 -2 34 1 70
l5 66 87 14 86 14 6 -25 c4 -14 7 -42 8 -63z m-312 71 l83 -12 0 -63 c0 -49
-4 -65 -16 -70 -18 -7 -163 22 -175 34 -12 12 2 123 14 123 6 0 48 -5 94 -12z
m-242 -93 c189 -114 443 -121 647 -19 36 18 69 38 73 44 3 5 11 10 17 10 30 0
-25 -156 -75 -216 -42 -49 -142 -94 -238 -106 -226 -29 -416 59 -462 214 -19
67 -29 108 -23 108 2 0 29 -16 61 -35z"/>
<path d="M945 1386 c-41 -18 -82 -68 -96 -116 -20 -67 16 -156 74 -187 83 -43
148 -35 208 26 79 79 69 195 -24 265 -33 25 -121 32 -162 12z"/>
<path d="M1453 1375 c-48 -29 -83 -92 -83 -149 0 -104 107 -191 204 -165 54
14 105 54 122 95 65 155 -100 304 -243 219z"/>
<path d="M1237 1099 c-47 -28 -36 -120 16 -133 77 -19 127 65 72 119 -25 26
-58 31 -88 14z"/>
</g>
</svg>
