<?xml version="1.0" encoding="UTF-8"?>
<svg version="1.1" xmlns="http://www.w3.org/2000/svg" width="1005" height="925">
<path d="M0 0 C1.62902208 1.426831 3.25283465 2.85935999 4.87524414 4.29370117 C5.78016602 5.08647461 6.68508789 5.87924805 7.61743164 6.69604492 C16.26114051 14.35690216 24.46821931 22.42532908 31.87524414 31.29370117 C32.32206543 31.82141113 32.76888672 32.34912109 33.22924805 32.89282227 C45.95684573 47.96746966 57.17999821 64.10823428 66.87524414 81.29370117 C67.26776367 81.98302734 67.6602832 82.67235352 68.06469727 83.38256836 C75.65118972 96.83025744 81.50047986 110.83430277 86.87524414 125.29370117 C87.21185059 126.19878418 87.54845703 127.10386719 87.89526367 128.03637695 C95.09623147 147.72738832 99.83731038 168.33260845 102.58276367 189.1105957 C102.77221712 190.52469645 102.97300678 191.93734346 103.18725586 193.34790039 C106.86954927 217.59984546 106.28045828 244.05181958 102.87524414 268.29370117 C102.78404297 268.9970459 102.6928418 269.70039062 102.59887695 270.42504883 C97.37182584 309.9947428 83.76891141 349.26661995 62.87524414 383.29370117 C62.45952148 383.97158691 62.04379883 384.64947266 61.61547852 385.34790039 C54.9532691 396.10860235 47.65341061 406.31505914 39.87524414 416.29370117 C38.75375977 417.7380957 38.75375977 417.7380957 37.60961914 419.21166992 C23.65544676 436.70606752 7.51010129 452.52410108 -10.36987305 465.97143555 C-12.13403883 467.30069569 -13.88320159 468.64817403 -15.63256836 469.99682617 C-25.62776964 477.60755133 -36.23999726 484.04173068 -47.12475586 490.29370117 C-47.76316406 490.66591797 -48.40157227 491.03813477 -49.05932617 491.42163086 C-114.48067033 529.33915978 -196.91405838 537.1891094 -269.40307617 518.44604492 C-300.96625223 509.95568839 -330.70870289 497.11317723 -358.12475586 479.29370117 C-358.80199707 478.85590332 -359.47923828 478.41810547 -360.17700195 477.96704102 C-385.4283188 461.50886565 -409.73843464 440.24110253 -428.12475586 416.29370117 C-429.3177832 414.79129883 -429.3177832 414.79129883 -430.53491211 413.25854492 C-461.56192854 373.99384055 -482.11145753 326.65990695 -490.12475586 277.29370117 C-490.2757373 276.3671875 -490.42671875 275.44067383 -490.58227539 274.48608398 C-495.19826516 244.55933264 -495.39083076 212.12280448 -490.12475586 182.29370117 C-489.95314941 181.28855469 -489.78154297 180.2834082 -489.60473633 179.24780273 C-481.04016286 130.12587911 -461.51041903 84.82456394 -431.12475586 45.29370117 C-430.69259766 44.72329102 -430.26043945 44.15288086 -429.81518555 43.56518555 C-424.39322611 36.41148276 -418.86153819 29.76175937 -412.38256836 23.51635742 C-410.37374566 21.53881397 -408.55643009 19.51635515 -406.74975586 17.35620117 C-398.59932825 7.89486563 -388.69693903 0.16809385 -378.82006836 -7.3918457 C-377.24580189 -8.61244632 -375.69955969 -9.86895886 -374.15600586 -11.12817383 C-351.83502253 -29.10243935 -325.00674967 -42.98408891 -298.12475586 -52.70629883 C-297.36356445 -52.9816748 -296.60237305 -53.25705078 -295.81811523 -53.54077148 C-208.00521628 -84.85667848 -107.1038204 -74.94722425 0 0 Z " fill="#F22D21" transform="translate(701.124755859375,396.706298828125)"/>
<path d="M0 0 C3.10241691 2.44959173 4.99941515 5.56042106 7.1484375 8.84765625 C8.13046139 10.31190201 9.11355428 11.77543133 10.09765625 13.23828125 C10.58927246 13.97369141 11.08088867 14.70910156 11.58740234 15.46679688 C13.66261699 18.54610211 15.80014933 21.57798656 17.9609375 24.59765625 C18.35885498 25.15477295 18.75677246 25.71188965 19.16674805 26.28588867 C23.02208082 31.65125863 26.99680811 36.92723099 31.00170898 42.18164062 C38.0234375 51.44499796 38.0234375 51.44499796 38.0234375 56.59765625 C36.89869019 57.16311157 36.89869019 57.16311157 35.7512207 57.73999023 C13.44127232 66.81949708 13.44127232 66.81949708 -2.78125 81.83984375 C-2.84570312 82.41992188 -2.91015625 83 -2.9765625 83.59765625 C-2.0071875 83.86578125 -1.0378125 84.13390625 -0.0390625 84.41015625 C14.69798189 88.65016462 27.36884001 94.48592808 39.0234375 104.59765625 C40.0134375 105.25765625 41.0034375 105.91765625 42.0234375 106.59765625 C42.07242188 105.870625 42.12140625 105.14359375 42.171875 104.39453125 C42.32963029 102.27299464 42.51112716 100.15314589 42.7109375 98.03515625 C42.91130608 95.83110183 43.06171422 93.62159979 43.1484375 91.41015625 C43.51604049 86.90701964 43.99913761 83.71283334 47.12338257 80.31140137 C54.59454084 74.6466417 60.00004319 73.52450485 69.25 73.87890625 C70.47826508 73.88700317 71.70653015 73.8951001 72.97201538 73.90344238 C76.86576281 73.93005149 80.75567899 74.00736279 84.6484375 74.09765625 C89.78715437 74.21652563 94.9225972 74.2824703 100.0625 74.31640625 C101.81126938 74.38317566 101.81126938 74.38317566 103.59536743 74.45129395 C109.88512379 74.48775198 113.31427129 73.96191832 118.02099609 69.61523438 C118.68134857 68.89082153 119.34170105 68.16640869 120.02206421 67.42004395 C123.73524408 64.03893891 128.10466445 64.47365021 132.9152832 64.48413086 C134.07610916 64.48420639 135.23693512 64.48428192 136.43293762 64.48435974 C137.67581039 64.48952103 138.91868317 64.49468231 140.19921875 64.5 C141.47951462 64.50141495 142.75981049 64.5028299 144.0789032 64.50428772 C147.4704079 64.50809228 150.86186927 64.51790482 154.25335693 64.5289917 C157.71902887 64.53925028 161.18470786 64.54379484 164.65039062 64.54882812 C171.44142498 64.5598487 178.23242731 64.57658055 185.0234375 64.59765625 C188.19652871 85.46400322 191.02287863 106.36612163 193.74975586 127.29516602 C194.10168285 129.99488222 194.45550942 132.69433704 194.81135559 135.39353943 C195.14168121 137.90050721 195.46902363 140.40787034 195.79301453 142.91566467 C195.94019424 144.02961105 196.08737396 145.14355743 196.23901367 146.29125977 C196.36684738 147.27127457 196.49468109 148.25128937 196.62638855 149.26100159 C196.90920836 151.61174692 196.90920836 151.61174692 198.0234375 153.59765625 C199.07917969 152.81841797 199.07917969 152.81841797 200.15625 152.0234375 C211.11449227 144.28400007 221.75224969 140.72196902 234.99609375 138.9609375 C236.44731628 138.76111267 236.44731628 138.76111267 237.92785645 138.55725098 C240.29241595 138.23238868 242.65754623 137.91264644 245.0234375 137.59765625 C245.003452 136.7686657 245.003452 136.7686657 244.98306274 135.92292786 C244.85019195 130.16426905 244.75977447 124.40604633 244.69384766 118.64624023 C244.66369731 116.49762279 244.62276942 114.3491282 244.57080078 112.20092773 C244.49790977 109.11020602 244.46396362 106.02111266 244.4375 102.9296875 C244.39104843 101.49191704 244.39104843 101.49191704 244.34365845 100.02510071 C244.34037007 93.49055548 244.34037007 93.49055548 246.31918335 90.90386963 C247.91796875 89.55297852 247.91796875 89.55297852 251.0234375 87.59765625 C252.14878906 86.79714844 252.14878906 86.79714844 253.296875 85.98046875 C253.99039063 85.56539063 254.68390625 85.1503125 255.3984375 84.72265625 C256.08679688 84.29210937 256.77515625 83.8615625 257.484375 83.41796875 C263.5351462 81.46310421 271.23400732 84.2077738 277.3046875 85.6015625 C278.18408493 85.80050613 279.06348236 85.99944977 279.9695282 86.204422 C282.82193299 86.85160391 285.6728017 87.50522926 288.5234375 88.16015625 C289.49664948 88.38286194 290.46986145 88.60556763 291.4725647 88.83502197 C303.72875779 91.64190664 315.97943035 94.47652713 328.18994141 97.47677612 C330.1541223 97.95871583 332.12000906 98.43368645 334.0859375 98.90844727 C348.5806952 102.5272292 348.5806952 102.5272292 353.0234375 105.59765625 C354.0859375 108.34765625 354.0859375 108.34765625 354.0234375 110.59765625 C354.89742187 110.12972656 354.89742187 110.12972656 355.7890625 109.65234375 C360.36689382 107.47859366 363.91949807 106.19711448 368.96484375 107.17578125 C370.0120459 107.37606934 371.05924805 107.57635742 372.13818359 107.78271484 C373.42031738 108.05164551 374.70245117 108.32057617 376.0234375 108.59765625 C376.81349182 108.76227356 377.60354614 108.92689087 378.4175415 109.09649658 C384.1681024 110.29970864 389.90946403 111.54294961 395.64819336 112.80126953 C398.68597288 113.46718373 401.72472535 114.1284968 404.76367188 114.7890625 C413.72207738 116.74111773 422.67487876 118.7169438 431.60546875 120.79296875 C432.27632004 120.94724335 432.94717133 121.10151794 433.63835144 121.26046753 C437.51395488 122.17237056 441.26571684 123.28323168 445.0234375 124.59765625 C443.70935447 132.22051451 441.6229988 139.42923683 439.20703125 146.76953125 C438.64828308 148.49157021 438.64828308 148.49157021 438.07824707 150.24839783 C437.28570706 152.69013005 436.49084128 155.13110842 435.69381714 157.57138062 C433.6241798 163.91062154 431.57340743 170.25593891 429.5234375 176.6015625 C428.92437843 178.45482903 428.92437843 178.45482903 428.31321716 180.34553528 C424.35218198 192.62737674 420.63923535 204.97124712 416.99023438 217.34912109 C410.95503128 237.6280131 404.4533965 257.77245971 398.07421875 277.9453125 C395.61745802 285.71445552 393.16443843 293.48475669 390.72241211 301.25854492 C389.80763355 304.16872917 388.88471679 307.07614165 387.95532227 309.98168945 C385.95086952 316.27252164 383.99744972 322.55750372 382.30879211 328.94154358 C381.76743923 330.9832246 381.20804344 333.01911897 380.64331055 335.05444336 C379.96182142 337.5394948 379.31705973 340.03505614 378.71801758 342.54125977 C377.34010324 347.45890837 376.38840011 350.60238562 372.17138672 353.67724609 C361.12841388 359.29425996 353.75438799 359.0571131 342.0859375 356.04296875 C341.04703369 355.78135956 340.00812988 355.51975037 338.93774414 355.25021362 C335.63096408 354.41541497 332.32725733 353.56908545 329.0234375 352.72265625 C326.80226884 352.16072455 324.58091632 351.5995191 322.359375 351.0390625 C318.27624477 350.00574348 314.19355178 348.97082895 310.11328125 347.92626953 C309.29722412 347.71753204 308.48116699 347.50879456 307.64038086 347.29373169 C304.42301192 346.43795027 301.22457943 345.51226823 298.0234375 344.59765625 C298.0234375 337.33765625 298.0234375 330.07765625 298.0234375 322.59765625 C282.98462803 319.66234045 267.93722867 316.82230565 252.83886719 314.21020508 C251.71383789 314.01322021 250.58880859 313.81623535 249.4296875 313.61328125 C248.43259766 313.44086914 247.43550781 313.26845703 246.40820312 313.09082031 C244.0234375 312.59765625 244.0234375 312.59765625 242.0234375 311.59765625 C242.33313971 308.24322518 242.64670801 304.889166 242.9609375 301.53515625 C243.04794922 300.59220703 243.13496094 299.64925781 243.22460938 298.67773438 C243.69986433 293.62595018 244.25132818 288.61288886 245.0234375 283.59765625 C244.43328857 283.71882813 243.84313965 283.84 243.23510742 283.96484375 C240.56099268 284.51213871 237.88598627 285.05494588 235.2109375 285.59765625 C234.28216797 285.7884375 233.35339844 285.97921875 232.39648438 286.17578125 C231.0574707 286.44648437 231.0574707 286.44648437 229.69140625 286.72265625 C228.86922607 286.89023437 228.0470459 287.0578125 227.19995117 287.23046875 C225.0234375 287.59765625 225.0234375 287.59765625 222.0234375 287.59765625 C222.1678125 288.65984375 222.3121875 289.72203125 222.4609375 290.81640625 C222.64870696 292.24345415 222.83619169 293.67053954 223.0234375 295.09765625 C223.11882813 295.79375 223.21421875 296.48984375 223.3125 297.20703125 C223.9395997 302.04465754 224.11133278 306.71946821 224.0234375 311.59765625 C223.16878906 311.94699219 222.31414063 312.29632813 221.43359375 312.65625 C220.32886719 313.11128906 219.22414063 313.56632812 218.0859375 314.03515625 C216.98378906 314.48761719 215.88164063 314.94007813 214.74609375 315.40625 C212.15774834 316.34190233 212.15774834 316.34190233 211.0234375 317.59765625 C203.47946118 317.93159583 196.22926645 316.98551911 188.765625 315.953125 C187.50436798 315.78267166 186.24311096 315.61221832 184.94363403 315.43659973 C182.28229095 315.07545695 179.62139452 314.71200016 176.9609375 314.34448242 C173.59680634 313.88000772 170.23147032 313.42506756 166.86565781 312.97295952 C140.29211464 309.39697687 140.29211464 309.39697687 128.0234375 306.59765625 C126.47117535 302.11763986 125.52013216 297.92977298 124.8984375 293.22265625 C124.64707031 291.35480469 124.64707031 291.35480469 124.390625 289.44921875 C124.26945313 288.50820313 124.14828125 287.5671875 124.0234375 286.59765625 C121.09386935 286.59765625 120.13842911 288.13817873 118.0234375 290.09765625 C114.24565972 293.59765625 114.24565972 293.59765625 112.0234375 293.59765625 C112.0234375 294.25765625 112.0234375 294.91765625 112.0234375 295.59765625 C111.3634375 295.59765625 110.7034375 295.59765625 110.0234375 295.59765625 C109.76651123 295.09838623 109.50958496 294.59911621 109.24487305 294.0847168 C108.07274471 291.81511967 106.8919522 289.55014104 105.7109375 287.28515625 C105.30681641 286.49947266 104.90269531 285.71378906 104.48632812 284.90429688 C104.08994141 284.14697266 103.69355469 283.38964844 103.28515625 282.609375 C102.92381592 281.91287842 102.56247559 281.21638184 102.19018555 280.4987793 C100.99728271 278.5550391 99.69693632 277.13643315 98.0234375 275.59765625 C95.17446122 276.52522992 92.37755495 277.44086954 89.63626099 278.65458679 C81.99892499 281.41119793 72.7410918 279.35407292 64.90625 278.171875 C63.88723602 278.02361771 62.86822205 277.87536041 61.81832886 277.72261047 C59.67829662 277.40943078 57.53882168 277.09242087 55.39990234 276.77172852 C52.16512619 276.28765366 48.92852873 275.81770702 45.69140625 275.34960938 C35.35885547 273.83548479 25.1325906 272.26531508 15.0234375 269.59765625 C15.14026358 267.34721703 15.2674333 265.09731465 15.3984375 262.84765625 C15.46804688 261.5946875 15.53765625 260.34171875 15.609375 259.05078125 C16.02754781 253.51196406 17.05114645 248.06122361 18.0234375 242.59765625 C17.1670166 242.8901123 16.3105957 243.18256836 15.42822266 243.48388672 C12.20559644 244.58101578 8.9811505 245.67244732 5.75537109 246.76025391 C4.36790021 247.22938948 2.98115895 247.70068937 1.59521484 248.17431641 C-0.41373929 248.86040688 -2.42531654 249.53829118 -4.4375 250.21484375 C-6.24420166 250.82755127 -6.24420166 250.82755127 -8.08740234 251.45263672 C-12.63231764 252.88770566 -17.29494093 253.73624383 -21.9765625 254.59765625 C-21.97434189 255.22770569 -21.97212128 255.85775513 -21.96983337 256.50689697 C-21.94772153 263.06041904 -21.93263118 269.61393052 -21.92163086 276.16748047 C-21.91660001 278.61377391 -21.90977466 281.06006434 -21.90112305 283.50634766 C-21.88900298 287.02116641 -21.88332171 290.53594543 -21.87890625 294.05078125 C-21.87374496 295.14569885 -21.86858368 296.24061646 -21.86326599 297.36871338 C-21.86319046 298.3894696 -21.86311493 299.41022583 -21.86303711 300.46191406 C-21.8608165 301.35904114 -21.85859589 302.25616821 -21.85630798 303.18048096 C-21.97306392 305.52733314 -22.13569584 307.4026597 -22.9765625 309.59765625 C-25.41154279 311.23370453 -27.69617334 312.58339257 -30.2890625 313.91015625 C-30.96646484 314.28205078 -31.64386719 314.65394531 -32.34179688 315.03710938 C-37.37529026 317.67932438 -37.37529026 317.67932438 -39.93579102 317.33154297 C-42.18726781 316.52188401 -44.17328826 315.52936753 -46.265625 314.3671875 C-47.11116943 313.90127197 -47.95671387 313.43535645 -48.82788086 312.95532227 C-49.7431958 312.44541748 -50.65851074 311.9355127 -51.6015625 311.41015625 C-53.59460199 310.31038185 -55.58811118 309.21145833 -57.58203125 308.11328125 C-59.15090088 307.24799805 -59.15090088 307.24799805 -60.75146484 306.36523438 C-66.11782634 303.42409454 -71.51848843 300.54722984 -76.9140625 297.66015625 C-85.22687595 293.20346747 -93.47279301 288.64876637 -101.6640625 283.97265625 C-112.1013051 278.01857911 -122.71483804 272.4484216 -133.39257812 266.94042969 C-138.36225141 264.35792751 -143.28608401 261.69014628 -148.2109375 259.0234375 C-150.95304582 257.52014065 -150.95304582 257.52014065 -153.9765625 256.59765625 C-153.6465625 271.77765625 -153.3165625 286.95765625 -152.9765625 302.59765625 C-170.27904244 310.58341622 -170.27904244 310.58341622 -176.47460938 311.25195312 C-177.30988159 311.34545044 -178.14515381 311.43894775 -179.0057373 311.53527832 C-179.89329712 311.62805054 -180.78085693 311.72082275 -181.6953125 311.81640625 C-182.63024536 311.91981323 -183.56517822 312.02322021 -184.52844238 312.12976074 C-187.51050927 312.45859125 -190.49343679 312.7785873 -193.4765625 313.09765625 C-197.3831672 313.5215344 -201.28932331 313.94939646 -205.1953125 314.37890625 C-206.13592529 314.48146729 -207.07653809 314.58402832 -208.0456543 314.68969727 C-214.43057757 315.3957576 -220.77406702 316.24032332 -227.11914062 317.24804688 C-229.9765625 317.59765625 -229.9765625 317.59765625 -235.9765625 317.59765625 C-236.3065625 309.67765625 -236.6365625 301.75765625 -236.9765625 293.59765625 C-239.1215625 294.93828125 -241.2665625 296.27890625 -243.4765625 297.66015625 C-263.90565655 310.03188244 -287.790531 317.91939877 -311.85546875 313.3828125 C-325.53536921 309.94143579 -335.25480621 303.569133 -344.9765625 293.59765625 C-343.1049282 305.22564635 -340.91926879 316.05415066 -336.1484375 326.859375 C-334.9765625 329.59765625 -334.9765625 329.59765625 -334.9765625 331.59765625 C-346.50378309 341.00725644 -360.55417165 345.47368706 -374.40713501 350.2855072 C-380.01815913 352.24055415 -385.59027028 354.29158414 -391.15625 356.37109375 C-392.01449371 356.69110352 -392.87273743 357.01111328 -393.75698853 357.34082031 C-397.17103203 358.61416822 -400.58484462 359.88808655 -403.99639893 361.16809082 C-406.37334465 362.05855459 -408.75276501 362.94208502 -411.1328125 363.82421875 C-411.83783905 364.0903598 -412.5428656 364.35650085 -413.26925659 364.63070679 C-417.15605492 366.06432184 -420.86728578 367.0628107 -424.9765625 367.59765625 C-430.59110017 356.65951352 -435.71460756 345.59181034 -440.5390625 334.28515625 C-441.23320914 332.66867773 -441.9277991 331.05238953 -442.62280273 329.4362793 C-444.74701518 324.49275561 -446.86263218 319.54558378 -448.9765625 314.59765625 C-449.62757367 313.07453123 -450.27861456 311.55141892 -450.9296875 310.02832031 C-451.24340302 309.2943956 -451.55711853 308.56047089 -451.88034058 307.80430603 C-453.43278954 304.17272664 -454.98573889 300.54136161 -456.5390625 296.91015625 C-456.9980191 295.83681534 -456.9980191 295.83681534 -457.46624756 294.74179077 C-463.92645231 279.64056812 -470.54228909 264.60987352 -477.20410156 249.59667969 C-478.65595909 246.32349123 -480.10182021 243.04770086 -481.54502869 239.77069092 C-482.36138805 237.91761686 -483.17908406 236.0651392 -483.99731445 234.21289062 C-484.98219898 231.98329297 -485.96529005 229.75290166 -486.94604492 227.52148438 C-489.72816159 221.24016387 -492.6971835 215.09333728 -495.85522461 208.99169922 C-496.9765625 206.59765625 -496.9765625 206.59765625 -496.9765625 204.59765625 C-497.95238281 204.95859375 -498.92820312 205.31953125 -499.93359375 205.69140625 C-501.21865819 206.16040787 -502.50381954 206.62914404 -503.7890625 207.09765625 C-504.43166016 207.33613281 -505.07425781 207.57460937 -505.73632812 207.8203125 C-508.62589989 208.86834371 -510.87732311 209.59765625 -513.9765625 209.59765625 C-515.32006836 207.87963867 -515.32006836 207.87963867 -516.69140625 205.453125 C-517.20630615 204.55859619 -517.72120605 203.66406738 -518.25170898 202.74243164 C-518.80028564 201.76653076 -519.3488623 200.79062988 -519.9140625 199.78515625 C-521.08873799 197.74470568 -522.26586539 195.70566489 -523.4453125 193.66796875 C-524.03828125 192.6409082 -524.63125 191.61384766 -525.2421875 190.55566406 C-527.70209971 186.36023947 -530.29178876 182.25541378 -532.9140625 178.16015625 C-538.05794337 170.10186848 -543.0505491 161.95838607 -547.99389648 153.77563477 C-548.54118408 152.87127686 -549.08847168 151.96691895 -549.65234375 151.03515625 C-550.18682129 150.14570313 -550.72129883 149.25625 -551.27197266 148.33984375 C-552.47761758 146.40031299 -553.73264304 144.4910736 -555.02099609 142.60546875 C-555.6805127 141.63351563 -556.3400293 140.6615625 -557.01953125 139.66015625 C-557.63207764 138.78488281 -558.24462402 137.90960938 -558.87573242 137.0078125 C-559.9765625 134.59765625 -559.9765625 134.59765625 -559.39819336 132.54345703 C-549.98520323 119.65980061 -537.11599337 108.85121076 -522.9765625 101.59765625 C-521.61168701 100.89334473 -521.61168701 100.89334473 -520.21923828 100.17480469 C-471.6398124 75.42874197 -416.12628784 60.69113544 -362.4296875 77.72265625 C-342.50236301 84.83287532 -323.65918033 100.41899677 -314.04492188 119.44091797 C-307.36396646 133.89244287 -304.05098845 148.76652573 -306.9765625 164.59765625 C-305.85378906 164.05496094 -304.73101562 163.51226562 -303.57421875 162.953125 C-285.678253 154.36514144 -270.91034441 150.83106959 -250.9765625 152.59765625 C-250.9765625 149.95765625 -250.9765625 147.31765625 -250.9765625 144.59765625 C-251.97236328 144.81421875 -251.97236328 144.81421875 -252.98828125 145.03515625 C-253.87128906 145.22078125 -254.75429688 145.40640625 -255.6640625 145.59765625 C-256.53417969 145.78328125 -257.40429688 145.96890625 -258.30078125 146.16015625 C-260.91754474 146.58800663 -263.33163612 146.62865905 -265.9765625 146.59765625 C-266.00150556 141.2448764 -266.01953626 135.89213128 -266.03149414 130.53930664 C-266.03648561 128.72289439 -266.04328114 126.90648607 -266.05200195 125.09008789 C-266.07588096 119.98419337 -266.06830815 114.8806728 -266.00057983 109.77511597 C-265.97954993 107.86850234 -265.98434178 105.96163969 -265.9934082 104.05493164 C-265.79995797 97.59521115 -265.79995797 97.59521115 -263.64916992 94.98950195 C-261.8482758 93.61846364 -260.07654068 92.64219296 -258.0390625 91.66015625 C-257.41193359 91.31404297 -256.78480469 90.96792969 -256.13867188 90.61132812 C-246.10627615 85.22636647 -235.2482755 82.04786375 -224.37109375 78.8671875 C-222.87749514 78.42717881 -221.38398165 77.9868811 -219.89054871 77.54631042 C-216.77927072 76.6296776 -213.66699716 75.71653121 -210.55395508 74.8059082 C-206.57785464 73.64251744 -202.60440605 72.47034652 -198.6316576 71.29556751 C-195.55538241 70.38694435 -192.47775011 69.48299082 -189.39969444 68.58041954 C-187.93415016 68.15007961 -186.46902458 67.71831092 -185.00434303 67.28504372 C-182.95582997 66.67983187 -180.90556398 66.08095695 -178.85473633 65.48364258 C-177.11127678 64.97212395 -177.11127678 64.97212395 -175.33259583 64.45027161 C-171.88993064 63.57564704 -168.49915375 63.03610027 -164.9765625 62.59765625 C-163.71350915 67.67242419 -162.70620166 72.32561979 -162.9765625 77.59765625 C-162.3165625 77.59765625 -161.6565625 77.59765625 -160.9765625 77.59765625 C-161.069375 76.11265625 -161.069375 76.11265625 -161.1640625 74.59765625 C-160.74852673 71.54625929 -159.99113402 70.61140013 -157.70703125 68.45703125 C-145.17658436 59.20061358 -145.17658436 59.20061358 -139.99707031 59.84326172 C-137.57003792 60.74943984 -136.37816834 61.86715058 -134.5859375 63.73046875 C-133.96323975 64.36799072 -133.34054199 65.0055127 -132.69897461 65.66235352 C-132.04807861 66.34225342 -131.39718262 67.02215332 -130.7265625 67.72265625 C-129.37034981 69.11119436 -128.01230067 70.49794134 -126.65234375 71.8828125 C-125.74222534 72.82072632 -125.74222534 72.82072632 -124.8137207 73.77758789 C-122.3618242 76.20667605 -119.76727731 78.44136478 -117.12890625 80.6640625 C-113.30312656 84.10101521 -109.7431331 87.81243373 -106.12670898 91.46704102 C-102.43157938 95.18614227 -98.66655583 98.74276966 -94.6640625 102.1328125 C-91.95743766 104.48231323 -89.47855725 107.03311163 -86.9765625 109.59765625 C-82.24297428 108.30667764 -79.74936789 105.55924082 -76.52734375 102.05859375 C-74.9765625 100.59765625 -74.9765625 100.59765625 -72.9765625 100.59765625 C-75.7244838 96.323112 -78.66907239 92.45639472 -81.9765625 88.59765625 C-78.59976228 82.44705586 -74.41336473 77.65867184 -69.63061523 72.59570312 C-65.57816443 68.29458625 -61.82250224 63.8193578 -58.12109375 59.2109375 C-55.97781294 56.59918002 -53.7527592 54.09400323 -51.4765625 51.59765625 C-48.36197582 48.18026253 -45.3846963 44.69243275 -42.4765625 41.09765625 C-39.5684287 37.50287975 -36.59114918 34.01504997 -33.4765625 30.59765625 C-30.34292256 27.15882703 -27.34431887 23.64897157 -24.4140625 20.03515625 C-23.66898438 19.1225 -22.92390625 18.20984375 -22.15625 17.26953125 C-20.75870094 15.5564066 -19.36747704 13.83809086 -17.984375 12.11328125 C-6.7199092 -1.36788666 -6.7199092 -1.36788666 0 0 Z M-41.9765625 146.59765625 C-44.48589664 150.81790003 -44.1384897 154.82080391 -43.9765625 159.59765625 C-40.93323485 158.23923605 -38.85347099 156.71302601 -36.5234375 154.33984375 C-35.9046875 153.71464844 -35.2859375 153.08945313 -34.6484375 152.4453125 C-33.69710937 151.46884766 -33.69710937 151.46884766 -32.7265625 150.47265625 C-31.75203125 149.48458984 -31.75203125 149.48458984 -30.7578125 148.4765625 C-29.15944523 146.85468982 -27.56594353 145.22832815 -25.9765625 143.59765625 C-26.3065625 142.93765625 -26.6365625 142.27765625 -26.9765625 141.59765625 C-33.83540021 140.91177248 -37.25392144 141.41426972 -41.9765625 146.59765625 Z M-391.9765625 158.59765625 C-393.26669183 160.61209468 -393.26669183 160.61209468 -392.27978516 162.99609375 C-391.9038623 163.97835937 -391.52793945 164.960625 -391.140625 165.97265625 C-390.73585938 167.04 -390.33109375 168.10734375 -389.9140625 169.20703125 C-389.4809375 170.3259375 -389.0478125 171.44484375 -388.6015625 172.59765625 C-388.17617188 173.7165625 -387.75078125 174.83546875 -387.3125 175.98828125 C-385.31847069 181.36802917 -385.31847069 181.36802917 -382.9765625 186.59765625 C-379.60793964 185.85905108 -379.60793964 185.85905108 -378.1640625 182.16015625 C-376.42435982 176.99657065 -377.0445651 172.63231048 -378.9765625 167.59765625 C-381.44495926 163.35607574 -384.08247238 160.56282982 -388.8515625 159.16015625 C-389.8828125 158.97453125 -390.9140625 158.78890625 -391.9765625 158.59765625 Z M-109.9765625 159.59765625 C-111.070795 161.0958203 -112.12599935 162.62253953 -113.1640625 164.16015625 C-116.19947536 168.56903071 -119.41706 172.60406807 -122.9765625 176.59765625 C-121.79335674 177.23074816 -120.60468402 177.85362343 -119.4140625 178.47265625 C-118.75277344 178.82070312 -118.09148437 179.16875 -117.41015625 179.52734375 C-114.38309805 180.8586663 -111.15621347 181.68918455 -107.9765625 182.59765625 C-108.3065625 175.00765625 -108.6365625 167.41765625 -108.9765625 159.59765625 C-109.3065625 159.59765625 -109.6365625 159.59765625 -109.9765625 159.59765625 Z " fill="#111514" transform="translate(559.9765625,0.40234375)"/>
<path d="M0 0 C56.43 0 112.86 0 171 0 C172.65 5.61 174.3 11.22 176 17 C177.16471647 20.01668799 178.27744538 22.81343363 179.6875 25.6875 C180.18842163 26.72692749 180.18842163 26.72692749 180.69946289 27.78735352 C192.97559423 52.36491621 214.55746858 71.4044579 240.62768555 80.15136719 C257.64373663 85.4638856 276.5725359 87.55978855 294 83 C294.92280762 82.77401123 294.92280762 82.77401123 295.86425781 82.54345703 C324.39163596 75.46937398 347.12036322 57.28423771 362.25 32.25 C367.87531583 22.06977256 371.1890422 11.2438312 374 0 C430.1 0 486.2 0 544 0 C541.60057948 38.39072828 533.28217562 75.14782446 514.94140625 109.23046875 C514.00409616 110.99230058 513.11122987 112.77754026 512.21875 114.5625 C504.60544394 129.67060119 494.97805101 144.13682912 484 157 C482.93458984 158.33804688 482.93458984 158.33804688 481.84765625 159.703125 C468.85109203 175.71784868 453.77066782 190.96530316 437 203 C435.91273071 203.81463176 434.82681103 204.63106765 433.7421875 205.44921875 C419.232005 216.2586469 403.42274581 225.42891198 387 233 C386.22108398 233.3619043 385.44216797 233.72380859 384.63964844 234.09667969 C320.18626811 263.73361231 245.39072605 265.35333355 178.7890625 241.81640625 C132.41153208 224.64504149 88.05906494 194.70993037 58 155 C57.25621094 154.08476563 56.51242187 153.16953125 55.74609375 152.2265625 C44.37221653 138.02290844 34.55725815 122.40889815 26.89892578 105.90234375 C25.98898605 103.97669182 25.03067408 102.08245361 24.05859375 100.1875 C8.75374138 69.87067516 0 33.92554062 0 0 Z " fill="#FEFEFE" transform="translate(235,641)"/>
<path d="M0 0 C1.62902208 1.426831 3.25283465 2.85935999 4.87524414 4.29370117 C5.78016602 5.08647461 6.68508789 5.87924805 7.61743164 6.69604492 C16.26114051 14.35690216 24.46821931 22.42532908 31.87524414 31.29370117 C32.32206543 31.82141113 32.76888672 32.34912109 33.22924805 32.89282227 C45.95684573 47.96746966 57.17999821 64.10823428 66.87524414 81.29370117 C67.26776367 81.98302734 67.6602832 82.67235352 68.06469727 83.38256836 C75.65118972 96.83025744 81.50047986 110.83430277 86.87524414 125.29370117 C87.21185059 126.19878418 87.54845703 127.10386719 87.89526367 128.03637695 C95.09623147 147.72738832 99.83731038 168.33260845 102.58276367 189.1105957 C102.77221712 190.52469645 102.97300678 191.93734346 103.18725586 193.34790039 C106.86954927 217.59984546 106.28045828 244.05181958 102.87524414 268.29370117 C102.78404297 268.9970459 102.6928418 269.70039062 102.59887695 270.42504883 C97.37182584 309.9947428 83.76891141 349.26661995 62.87524414 383.29370117 C62.45952148 383.97158691 62.04379883 384.64947266 61.61547852 385.34790039 C54.9532691 396.10860235 47.65341061 406.31505914 39.87524414 416.29370117 C38.75375977 417.7380957 38.75375977 417.7380957 37.60961914 419.21166992 C23.65544676 436.70606752 7.51010129 452.52410108 -10.36987305 465.97143555 C-12.13403883 467.30069569 -13.88320159 468.64817403 -15.63256836 469.99682617 C-25.62776964 477.60755133 -36.23999726 484.04173068 -47.12475586 490.29370117 C-47.76316406 490.66591797 -48.40157227 491.03813477 -49.05932617 491.42163086 C-114.48067033 529.33915978 -196.91405838 537.1891094 -269.40307617 518.44604492 C-300.96625223 509.95568839 -330.70870289 497.11317723 -358.12475586 479.29370117 C-358.80199707 478.85590332 -359.47923828 478.41810547 -360.17700195 477.96704102 C-385.4283188 461.50886565 -409.73843464 440.24110253 -428.12475586 416.29370117 C-429.3177832 414.79129883 -429.3177832 414.79129883 -430.53491211 413.25854492 C-461.56192854 373.99384055 -482.11145753 326.65990695 -490.12475586 277.29370117 C-490.2757373 276.3671875 -490.42671875 275.44067383 -490.58227539 274.48608398 C-495.19826516 244.55933264 -495.39083076 212.12280448 -490.12475586 182.29370117 C-489.95314941 181.28855469 -489.78154297 180.2834082 -489.60473633 179.24780273 C-481.04016286 130.12587911 -461.51041903 84.82456394 -431.12475586 45.29370117 C-430.69259766 44.72329102 -430.26043945 44.15288086 -429.81518555 43.56518555 C-424.39322611 36.41148276 -418.86153819 29.76175937 -412.38256836 23.51635742 C-410.37374566 21.53881397 -408.55643009 19.51635515 -406.74975586 17.35620117 C-398.59932825 7.89486563 -388.69693903 0.16809385 -378.82006836 -7.3918457 C-377.24580189 -8.61244632 -375.69955969 -9.86895886 -374.15600586 -11.12817383 C-351.83502253 -29.10243935 -325.00674967 -42.98408891 -298.12475586 -52.70629883 C-297.36356445 -52.9816748 -296.60237305 -53.25705078 -295.81811523 -53.54077148 C-208.00521628 -84.85667848 -107.1038204 -74.94722425 0 0 Z M-232.55249023 -43.10327148 C-234.87062073 -42.745519 -237.18733517 -42.43983043 -239.51538086 -42.15551758 C-277.44135927 -37.18169138 -317.39217539 -20.33401152 -348.22143555 1.92016602 C-350.37705552 3.47577376 -352.55233282 5.00215728 -354.72631836 6.53198242 C-364.67315204 13.61648252 -373.72806232 21.2117022 -382.47729492 29.7199707 C-384.01461385 31.18848845 -385.58098638 32.60715082 -387.17944336 34.00854492 C-393.01951764 39.12872085 -398.04981168 44.44893699 -402.79956055 50.59301758 C-404.32836235 52.55499867 -405.88644967 54.49204744 -407.44506836 56.43041992 C-415.07921602 65.98951922 -422.01534499 75.69426943 -428.12475586 86.29370117 C-428.83196777 87.51500732 -428.83196777 87.51500732 -429.5534668 88.76098633 C-451.38787203 126.79717371 -466.12475586 170.09571842 -466.12475586 214.29370117 C-409.69475586 214.29370117 -353.26475586 214.29370117 -295.12475586 214.29370117 C-293.80475586 208.68370117 -292.48475586 203.07370117 -291.12475586 197.29370117 C-285.86746824 182.00791356 -277.34338562 168.87881975 -266.12475586 157.29370117 C-265.54854492 156.63241211 -264.97233398 155.97112305 -264.37866211 155.28979492 C-249.10340324 138.44958749 -223.96992335 128.41596106 -201.60351562 127.15112305 C-172.35669895 126.11199025 -148.73832053 134.26767172 -126.12475586 153.29370117 C-125.5356543 153.73713867 -124.94655273 154.18057617 -124.33959961 154.63745117 C-105.78807731 169.02255593 -97.19059668 192.3417243 -92.12475586 214.29370117 C-36.02475586 214.29370117 20.07524414 214.29370117 77.87524414 214.29370117 C77.21904489 203.79451321 76.43805896 193.74226769 74.75024414 183.41870117 C74.64298004 182.75894287 74.53571594 182.09918457 74.42520142 181.41943359 C72.18112876 167.77677691 68.94044828 154.50880719 64.87524414 141.29370117 C64.57779297 140.32029785 64.2803418 139.34689453 63.97387695 138.34399414 C56.99740334 115.96271258 46.85644996 94.81188879 33.87524414 75.29370117 C33.47128418 74.68558594 33.06732422 74.0774707 32.65112305 73.45092773 C20.18071538 54.91617866 5.18264352 36.49792543 -12.12475586 22.29370117 C-13.68245469 20.94759145 -15.24015347 19.60148167 -16.79785156 18.25537109 C-22.67183791 13.21053445 -28.67552861 8.59007944 -35.12475586 4.29370117 C-36.25562965 3.51732584 -37.38578928 2.73990963 -38.51538086 1.96166992 C-60.28475928 -12.93560767 -83.93203511 -24.82276703 -109.12475586 -32.70629883 C-110.06432129 -33.0052002 -111.00388672 -33.30410156 -111.97192383 -33.61206055 C-150.83391304 -45.8697663 -192.19520463 -49.47434545 -232.55249023 -43.10327148 Z M-466.12475586 244.29370117 C-466.12475586 274.75597884 -458.54816297 305.15324798 -447.12475586 333.29370117 C-446.80394043 334.08421875 -446.483125 334.87473633 -446.15258789 335.68920898 C-432.3493039 369.15638917 -410.97216968 398.52799492 -385.56225586 424.10620117 C-384.70019531 424.97752686 -383.83813477 425.84885254 -382.94995117 426.74658203 C-366.15556596 443.45988871 -346.59999919 456.55067675 -326.12475586 468.29370117 C-325.49601563 468.66301758 -324.86727539 469.03233398 -324.21948242 469.4128418 C-304.0828161 481.21281545 -281.68431989 488.72417254 -259.12475586 494.29370117 C-258.30185059 494.50075684 -257.47894531 494.7078125 -256.63110352 494.92114258 C-200.7716223 508.81286774 -141.10294473 503.42934796 -88.12475586 481.29370117 C-86.89281494 480.78782471 -86.89281494 480.78782471 -85.63598633 480.27172852 C-61.07049335 470.09687227 -38.25274597 455.65207984 -18.12475586 438.29370117 C-17.3912793 437.67108398 -16.65780273 437.0484668 -15.90209961 436.40698242 C-3.05229841 425.1882023 9.65151609 412.97807218 19.87524414 399.29370117 C20.28081543 398.76454102 20.68638672 398.23538086 21.10424805 397.69018555 C54.21395193 354.48978875 77.87524414 299.46240207 77.87524414 244.29370117 C21.77524414 244.29370117 -34.32475586 244.29370117 -92.12475586 244.29370117 C-94.10475586 250.89370117 -96.08475586 257.49370117 -98.12475586 264.29370117 C-102.81876885 274.75904161 -107.7966684 283.48493851 -115.12475586 292.29370117 C-115.85694336 293.17799805 -116.58913086 294.06229492 -117.34350586 294.97338867 C-133.80920983 314.04809504 -158.03459885 326.61145722 -183.12475586 329.29370117 C-211.18090755 330.9637102 -237.451847 323.58021803 -259.12475586 305.29370117 C-259.76413086 304.79870117 -260.40350586 304.30370117 -261.06225586 303.79370117 C-279.37576267 289.02474407 -289.10948118 266.34970832 -295.12475586 244.29370117 C-351.55475586 244.29370117 -407.98475586 244.29370117 -466.12475586 244.29370117 Z " fill="#191B1B" transform="translate(701.124755859375,396.706298828125)"/>
<path d="M0 0 C11.49527863 11.0517309 18.33788218 24.64013586 18.7421875 40.5859375 C18.29945245 64.1674043 3.39310806 84.56466717 -12.83349609 100.68994141 C-21.55804358 108.95827134 -31.69643891 115.54579342 -41.5703125 122.3359375 C-40.05257013 127.67358039 -38.53277053 133.01063263 -37.01135254 138.347229 C-36.46815287 140.25346576 -35.92542677 142.15983754 -35.38317871 144.06634521 C-32.49999698 154.20138104 -29.59586045 164.3275002 -26.546875 174.4140625 C-26.31340363 175.19037018 -26.07993225 175.96667786 -25.83938599 176.76651001 C-24.74495853 180.40554305 -23.64098389 184.04104372 -22.51806641 187.67138672 C-20.58967802 194.01196796 -18.99356067 199.66936486 -19.5703125 206.3359375 C-23.56857425 207.89368691 -27.57048234 209.44155899 -31.57592773 210.98071289 C-32.93567426 211.50476001 -34.29442096 212.0314096 -35.65209961 212.56079102 C-37.61309577 213.32488096 -39.57759567 214.07928235 -41.54296875 214.83203125 C-42.72125244 215.28763428 -43.89953613 215.7432373 -45.11352539 216.21264648 C-48.61332079 217.34991314 -51.9196066 217.92622679 -55.5703125 218.3359375 C-59.66120649 210.3762423 -63.42324693 202.31859035 -66.97442627 194.10464478 C-67.85791639 192.06147427 -68.74560188 190.02016823 -69.63427734 187.97924805 C-70.93331054 184.99572175 -72.23115697 182.01168345 -73.52832031 179.02734375 C-77.06631719 170.89331316 -80.63034649 162.77067564 -84.1953125 154.6484375 C-84.7553598 153.37217499 -84.7553598 153.37217499 -85.32672119 152.07012939 C-93.86578813 132.61671258 -102.49874262 113.20521768 -111.13964844 93.796875 C-114.68085171 85.84222989 -118.21625113 77.88500551 -121.75189209 69.92788696 C-123.42551012 66.16145764 -125.09947986 62.39518465 -126.7734375 58.62890625 C-127.32194189 57.39477619 -127.87044471 56.16064542 -128.41894531 54.92651367 C-128.98887207 53.64417847 -128.98887207 53.64417847 -129.5703125 52.3359375 C-134.78119104 53.25296468 -138.44222973 55.44330515 -142.94921875 58.15625 C-145.5703125 59.3359375 -145.5703125 59.3359375 -147.58789062 59.09985352 C-151.0997693 57.74656923 -152.6119527 54.23497915 -154.5078125 51.1484375 C-154.97437256 50.40609863 -155.44093262 49.66375977 -155.92163086 48.89892578 C-157.48827448 46.38807087 -159.03099239 43.86362901 -160.5703125 41.3359375 C-161.1468457 40.39637207 -161.72337891 39.45680664 -162.31738281 38.48876953 C-164.10213232 35.57043662 -165.87071781 32.64299801 -167.6328125 29.7109375 C-168.19282959 28.78772705 -168.75284668 27.8645166 -169.32983398 26.91333008 C-172.18016511 22.10523116 -174.36395772 17.80574489 -175.5703125 12.3359375 C-128.18119067 -18.97356506 -47.97572715 -41.71183399 0 0 Z M-47.5703125 45.3359375 C-48.86044183 47.35037593 -48.86044183 47.35037593 -47.87353516 49.734375 C-47.4976123 50.71664062 -47.12168945 51.69890625 -46.734375 52.7109375 C-46.32960937 53.77828125 -45.92484375 54.845625 -45.5078125 55.9453125 C-45.0746875 57.06421875 -44.6415625 58.183125 -44.1953125 59.3359375 C-43.76992187 60.45484375 -43.34453125 61.57375 -42.90625 62.7265625 C-40.91222069 68.10631042 -40.91222069 68.10631042 -38.5703125 73.3359375 C-35.20168964 72.59733233 -35.20168964 72.59733233 -33.7578125 68.8984375 C-32.01810982 63.7348519 -32.6383151 59.37059173 -34.5703125 54.3359375 C-37.03870926 50.09435699 -39.67622238 47.30111107 -44.4453125 45.8984375 C-45.4765625 45.7128125 -46.5078125 45.5271875 -47.5703125 45.3359375 Z " fill="#FEFEFE" transform="translate(215.5703125,113.6640625)"/>
<path d="M0 0 C3.40013186 0.5765441 4.92670485 1.60997661 7.25 4.125 C9.58477719 6.56278206 11.93359803 8.86990006 14.5 11.0625 C18.70380904 14.68590148 22.75781035 18.46178626 26.8125 22.25 C27.47121094 22.86496338 28.12992187 23.47992676 28.80859375 24.11352539 C32.33885286 27.41814937 32.33885286 27.41814937 34 29 C34.84630981 29.76546143 34.84630981 29.76546143 35.7097168 30.54638672 C37 32 37 32 36.9375 34.3671875 C35.79379479 37.57909296 34.22225743 39.54008251 32 42.125 C30.77410156 43.57132813 30.77410156 43.57132813 29.5234375 45.046875 C28.27433594 46.50867188 28.27433594 46.50867188 27 48 C25.53740545 49.7881898 24.07899695 51.57981243 22.625 53.375 C19.8142381 56.81903582 16.96032206 60.21806301 14.06079102 63.58764648 C7.84584832 70.82791662 2.10400782 78.37106203 -3.55712891 86.04931641 C-6.02036092 89.37947272 -8.51078681 92.68924267 -11 96 C-10.45939941 96.14695312 -9.91879883 96.29390625 -9.36181641 96.4453125 C-1.16725523 98.780385 6.7042375 101.88787062 14.625 105 C16.68203764 105.80404435 18.73949197 106.60700345 20.79734802 107.40895081 C22.11237823 107.92298819 23.42626133 108.43997105 24.73890686 108.96006775 C28.0381139 110.26321134 31.34223094 111.43379585 34.72265625 112.50390625 C38.77897274 114.35559781 39.78321398 116.01674832 41.8125 119.9375 C50.79220392 136.00262764 63.61138268 145.15110145 81 151 C86.61 152.32 92.22 153.64 98 155 C98 166.88 98 178.76 98 191 C93.29138133 192.17715467 92.61133528 191.65352199 88.4765625 189.45703125 C86.83965454 188.59803223 86.83965454 188.59803223 85.16967773 187.72167969 C83.98794528 187.08560816 82.80639063 186.44920619 81.625 185.8125 C80.39510133 185.16086064 79.16470742 184.51015522 77.93383789 183.86035156 C69.86194386 179.58621524 61.83871367 175.22021142 53.83544922 170.8190918 C45.35487487 166.16319429 36.80526305 161.6415744 28.25 157.125 C17.79056157 151.6024454 7.34581417 146.05592798 -3.0625 140.4375 C-13.98876185 134.54155426 -13.98876185 134.54155426 -24.9375 128.6875 C-25.96725952 128.13630493 -25.96725952 128.13630493 -27.01782227 127.57397461 C-29.65847 126.17308687 -32.15753619 124.94748794 -35 124 C-34.99555878 124.85555481 -34.99111755 125.71110962 -34.98654175 126.59259033 C-34.94646599 134.65577909 -34.91601607 142.7189344 -34.89637566 150.78219986 C-34.88593889 154.92759704 -34.87178165 159.07291191 -34.84912109 163.21826172 C-34.82738889 167.21882689 -34.81543057 171.21931291 -34.81024551 175.21993256 C-34.80655044 176.74615475 -34.79933489 178.27237261 -34.78853989 179.7985611 C-34.77401982 181.93644064 -34.77202225 184.07399314 -34.77294922 186.21191406 C-34.768508 187.4288092 -34.76406677 188.64570435 -34.75949097 189.8994751 C-34.99015934 192.87313898 -35.3285723 194.55766573 -37 197 C-38.98022461 197.72949219 -38.98022461 197.72949219 -41.40234375 198.046875 C-42.28833252 198.16957764 -43.17432129 198.29228027 -44.0871582 198.41870117 C-45.027771 198.52802979 -45.96838379 198.6373584 -46.9375 198.75 C-48.36098755 198.93429565 -48.36098755 198.93429565 -49.81323242 199.12231445 C-56.23496294 199.91148832 -62.53124517 200.31871904 -69 200 C-74.01155777 170.07980688 -74.01155777 170.07980688 -67.71704102 157.5715332 C-59.81462427 141.85720843 -59.6464225 122.29034289 -64.7421875 105.578125 C-67.4929473 97.7529822 -70.75580665 91.39832726 -76.25 85.1875 C-81.93661709 77.58732545 -81.45402152 68.5871945 -81.83789062 59.45361328 C-82.01640218 55.65056442 -82.27131382 51.85554338 -82.546875 48.05859375 C-82.59506378 47.3929541 -82.64325256 46.72731445 -82.69290161 46.04150391 C-82.76491287 45.04812012 -82.76491287 45.04812012 -82.83837891 44.03466797 C-83.24799723 38.35793021 -83.62457318 32.67908513 -84 27 C-85.41273193 27.24447876 -85.41273193 27.24447876 -86.85400391 27.49389648 C-90.65459984 28.10530696 -94.15726394 28.06625407 -98 28 C-98 23.05 -98 18.1 -98 13 C-86.43099817 9.53666824 -74.8237603 6.37289587 -63.0625 3.625 C-61.95600098 3.36251465 -60.84950195 3.1000293 -59.70947266 2.82958984 C-58.66194824 2.58934082 -57.61442383 2.3490918 -56.53515625 2.1015625 C-55.610979 1.88838379 -54.68680176 1.67520508 -53.73461914 1.45556641 C-50.77887263 0.96316189 -47.99111333 0.9224088 -45 1 C-44.42667619 6.87123223 -43.8571242 12.74281376 -43.29101562 18.61474609 C-43.09803407 20.61093958 -42.90403463 22.60703493 -42.70898438 24.60302734 C-42.42828957 27.4772849 -42.15129554 30.35187913 -41.875 33.2265625 C-41.78750488 34.11429352 -41.70000977 35.00202454 -41.60986328 35.91665649 C-41.19241338 40.29751814 -40.89911564 44.5926143 -41 49 C-36.72544184 45.63875586 -33.28466432 42.15972016 -30 37.8125 C-29.53924072 37.21518066 -29.07848145 36.61786133 -28.60375977 36.00244141 C-27.6005206 34.70143567 -26.60005136 33.3982903 -25.60205078 32.09326172 C-22.73036425 28.34107636 -19.83429433 24.60781625 -16.9375 20.875 C-16.34888184 20.11566162 -15.76026367 19.35632324 -15.15380859 18.57397461 C-10.24272753 12.26099322 -5.18346373 6.09116706 0 0 Z " fill="#FEFEFE" transform="translate(422,90)"/>
<path d="M0 0 C6.260019 -0.32881893 11.79167278 0.90454476 17.859375 2.37109375 C18.88556946 2.61287857 19.91176392 2.85466339 20.96905518 3.10377502 C24.23114443 3.87440706 27.49050818 4.6559633 30.75 5.4375 C32.95686953 5.95966832 35.1638993 6.48115995 37.37109375 7.00195312 C41.40035437 7.95628504 45.42945138 8.91122076 49.45605469 9.87670898 C50.66681671 10.16649879 50.66681671 10.16649879 51.90203857 10.46214294 C53.62139031 10.90293535 55.31612901 11.43870967 57 12 C57.94384766 14.40771484 57.94384766 14.40771484 58.7890625 17.8359375 C58.95177643 18.48533295 59.11449036 19.13472839 59.28213501 19.80380249 C59.87336318 22.19841312 60.43856833 24.59822751 61 27 C61.22941284 27.97682739 61.45882568 28.95365479 61.69519043 29.96008301 C63.90437562 39.40294747 66.06489244 48.85701481 68.21289062 58.31396484 C71.70928116 73.68539139 75.46672202 88.89932503 80 104 C82.07332072 99.4161512 83.61647557 95.08595696 84.76171875 90.16601562 C84.91339508 89.52274826 85.06507141 88.8794809 85.22134399 88.21672058 C85.54659805 86.83371508 85.86894966 85.45002428 86.18862915 84.0657196 C86.6960945 81.86904687 87.21165073 79.67440854 87.72924805 77.48010254 C88.8265937 72.82171658 89.91403498 68.16105026 91 63.5 C92.25943161 58.094417 93.52301151 52.68987402 94.79727173 47.2877655 C95.3025942 45.13593223 95.80025344 42.98242198 96.29760742 40.82873535 C96.61078896 39.49706312 96.92432842 38.16547498 97.23828125 36.83398438 C97.641073 35.10359924 97.641073 35.10359924 98.05200195 33.33825684 C100.58643583 24.41356417 100.58643583 24.41356417 103 22 C108.04885521 21.74594704 112.4814137 22.36785414 117.39453125 23.49609375 C118.40467537 23.72559471 118.40467537 23.72559471 119.43522644 23.95973206 C120.84524398 24.28154594 122.25444778 24.60694468 123.6628418 24.93579102 C125.82230101 25.43978746 127.98406282 25.93271349 130.14648438 26.42382812 C140.67544375 28.83772187 140.67544375 28.83772187 143 30 C140.95863306 37.72377992 138.68782243 45.34997415 136.26171875 52.9609375 C135.9044873 54.08818741 135.54725586 55.21543732 135.17919922 56.37684631 C134.41425674 58.7902419 133.64839364 61.20334586 132.88168335 63.61618042 C131.04964458 69.38271803 129.22390983 75.15124757 127.39863014 80.9199276 C126.98637208 82.22282661 126.57404759 83.52570461 126.16165733 84.82856178 C122.30271755 97.02093098 118.48072615 109.22453357 114.6875 121.4375 C114.40622253 122.34311676 114.12494507 123.24873352 113.83514404 124.18179321 C112.16408691 129.56394219 110.49536713 134.94681327 108.82751465 140.32995605 C107.99139307 143.02777097 107.15451352 145.72534962 106.31738281 148.42285156 C98.81565979 172.59623197 91.3740334 196.78735798 84 221 C79.39179148 221.11800189 75.35826275 220.81441337 70.8828125 219.72265625 C69.78195312 219.45646484 68.68109375 219.19027344 67.546875 218.91601562 C66.41765625 218.63435547 65.2884375 218.35269531 64.125 218.0625 C62.97257813 217.78470703 61.82015625 217.50691406 60.6328125 217.22070312 C52.14339993 215.14339993 52.14339993 215.14339993 51 214 C50.84637998 212.60698055 50.75804328 211.20668355 50.69665527 209.80656433 C50.654655 208.90224167 50.61265472 207.99791901 50.56938171 207.06619263 C50.52779434 206.06619232 50.48620697 205.06619202 50.44335938 204.03588867 C50.39605179 202.9887822 50.3487442 201.94167572 50.30000305 200.86283875 C50.19751007 198.5804434 50.09722829 196.29794797 49.99885559 194.01537132 C49.8432191 190.40565552 49.68184303 186.79623768 49.5189209 183.18684387 C49.17398308 175.52062699 48.83668904 167.8540829 48.5 160.1875 C48.10984971 151.31688219 47.71660969 142.4464174 47.31684875 133.57622719 C47.15781792 130.0155739 47.00378847 126.45472658 46.84997559 122.8938446 C46.75242878 120.71331767 46.65466233 118.53280056 46.55664062 116.35229492 C46.51505325 115.35836731 46.47346588 114.3644397 46.43061829 113.34039307 C46.38861801 112.42761093 46.34661774 111.5148288 46.30334473 110.5743866 C46.25136806 109.38722188 46.25136806 109.38722188 46.19834137 108.17607403 C46.00245845 106.02697248 45.58226015 104.07477679 45 102 C44.87329422 102.76769211 44.74658844 103.53538422 44.61604309 104.32633972 C43.40354534 111.66440065 42.18377441 119.00120198 40.95639515 126.33678722 C40.32606872 130.10549387 39.69828485 133.87458257 39.0769043 137.64477539 C36.2838141 154.5801389 33.34220316 171.37614397 29 188 C25.04030454 189.17093234 22.74790581 188.59248403 18.7734375 187.3828125 C17.5771875 187.02316406 16.3809375 186.66351563 15.1484375 186.29296875 C13.28058594 185.71482422 13.28058594 185.71482422 11.375 185.125 C10.12203125 184.74730469 8.8690625 184.36960937 7.578125 183.98046875 C-1.623841 181.1880795 -1.623841 181.1880795 -4 180 C-2.63596765 155.03078852 -2.63596765 155.03078852 3.6875 149.125 C5.45361226 147.74394128 7.22432874 146.3687466 9 145 C23.75276513 127.98163165 28.98440874 108.07347301 28 86 C26.84714975 73.73037947 20.8657179 60.30679082 12.4152832 51.31347656 C10.40074992 48.02044269 10.66135277 45.44636717 10.70703125 41.609375 C10.71127609 40.90476135 10.71552094 40.20014771 10.71989441 39.47418213 C10.73663462 37.23239288 10.77427596 34.99151569 10.8125 32.75 C10.82755296 31.22657552 10.8412403 29.70313689 10.85351562 28.1796875 C10.88652209 24.45283059 10.93827146 20.72650437 11 17 C10.30132813 16.80664062 9.60265625 16.61328125 8.8828125 16.4140625 C7.97273437 16.15367188 7.06265625 15.89328125 6.125 15.625 C5.22007812 15.36976562 4.31515625 15.11453125 3.3828125 14.8515625 C1 14 1 14 -1 12 C-1.23046875 9.6875 -1.23046875 9.6875 -1.1875 7 C-1.18105469 6.113125 -1.17460938 5.22625 -1.16796875 4.3125 C-1 2 -1 2 0 0 Z " fill="#FEFEFE" transform="translate(838,108)"/>
<path d="M0 0 C2.1590969 11.67710258 3.48903311 23.46901445 4.9375 35.25 C5.3189898 38.33210646 5.70117944 41.41412335 6.0843811 44.49601746 C6.3377531 46.54857042 6.58757831 48.60156436 6.83383179 50.65498352 C7.47786712 55.99170191 8.18565124 61.30830182 9.00048828 66.62182617 C9.15779922 67.70087219 9.31511017 68.77991821 9.47718811 69.8916626 C9.77799363 71.94378056 10.09797883 73.99321517 10.44065857 76.03875732 C11.35580362 82.46470724 10.78578092 86.47690928 7 91.8125 C5.37440124 93.91045866 3.68397526 95.94782436 2 98 C0.36177063 100.83947096 0.36177063 100.83947096 -0.875 103.6875 C-1.22304688 104.45449219 -1.57109375 105.22148437 -1.9296875 106.01171875 C-5.07850653 114.80312955 -6.55737656 122.83657393 -6.5 132.1875 C-6.49141968 133.82561646 -6.49141968 133.82561646 -6.48266602 135.49682617 C-6.13988949 151.13412949 -1.1046926 165.7030844 9.75 177.3125 C16.52565097 183.62856224 24.67136703 188.07139954 33 192 C33.04254356 193.99954746 33.04080783 196.00041636 33 198 C32 199 32 199 30.14111328 199.12841797 C23.35371396 199.09725203 16.63722741 198.69489841 9.875 198.125 C8.84246094 198.04636719 7.80992187 197.96773437 6.74609375 197.88671875 C3.82216303 197.64460984 0.91424369 197.33789839 -2 197 C-2.79760742 196.93393555 -3.59521484 196.86787109 -4.41699219 196.79980469 C-6.5546875 196.4921875 -6.5546875 196.4921875 -10 195 C-11.62938408 191.76613508 -12.3035969 189.49854227 -13 186 C-13.26135742 184.7723291 -13.52271484 183.5446582 -13.79199219 182.27978516 C-14.7193694 177.80272848 -15.54857772 173.3090886 -16.375 168.8125 C-16.68090593 167.17467726 -16.98706121 165.53690108 -17.29345703 163.89916992 C-19.51610278 151.94745146 -21.57121121 139.97024124 -23.48974609 127.96606445 C-23.67617676 126.8080835 -23.86260742 125.65010254 -24.0546875 124.45703125 C-24.29421143 122.9407312 -24.29421143 122.9407312 -24.53857422 121.39379883 C-24.88883071 118.99747394 -24.88883071 118.99747394 -26 117 C-31.33675128 126.87829128 -35.53388325 137.06892036 -39.53466797 147.55444336 C-39.94088379 148.60253174 -40.34709961 149.65062012 -40.765625 150.73046875 C-41.12430664 151.67301514 -41.48298828 152.61556152 -41.85253906 153.58666992 C-42.97298633 155.94318507 -44.03837202 157.31191562 -46 159 C-50.96291378 149.32672079 -55.55687883 139.53185243 -59.93676758 129.58227539 C-60.9545257 127.27388377 -61.98194274 124.9699407 -63.00976562 122.66601562 C-63.6620397 121.19036101 -64.31375439 119.71445897 -64.96484375 118.23828125 C-65.42406471 117.21182243 -65.42406471 117.21182243 -65.89256287 116.16462708 C-67.16040442 113.26438176 -68 111.20225752 -68 108 C-68.99 108 -69.98 108 -71 108 C-71.08636719 108.69738281 -71.17273438 109.39476562 -71.26171875 110.11328125 C-73.71901571 128.57682444 -77.07399711 147.0297213 -82 165 C-89.10554203 165.22066901 -95.64365954 164.40673048 -102.625 163.125 C-103.62273438 162.95097656 -104.62046875 162.77695313 -105.6484375 162.59765625 C-110.87175345 161.66492126 -115.93269368 160.57554902 -121 159 C-121.15316275 151.96910062 -120.59131608 145.219726 -119.6875 138.25 C-119.51057617 136.72826172 -119.51057617 136.72826172 -119.33007812 135.17578125 C-118.02617075 124.99861699 -114.03711996 120.84230657 -106.69140625 113.81640625 C-104.00544104 111.00569374 -101.86852122 108.4110842 -100 105 C-100.59689476 99.79297844 -105.02803545 96.99580613 -108.78320312 93.7734375 C-111.75865878 91.01587236 -112.89942294 89.63108562 -113.5546875 85.51953125 C-113.03406766 79.07848048 -111.45365338 72.73494171 -110.0625 66.4375 C-109.75272369 65.00919451 -109.44332455 63.58080717 -109.13427734 62.15234375 C-106.54546467 50.25037056 -103.84383526 38.37283804 -101.125 26.5 C-100.92641388 25.62922821 -100.72782776 24.75845642 -100.52322388 23.86129761 C-99.95971069 21.39614262 -99.39096837 18.93226007 -98.8203125 16.46875 C-98.56605247 15.35391991 -98.56605247 15.35391991 -98.30665588 14.21656799 C-97.11508354 9.11508354 -97.11508354 9.11508354 -96 8 C-90.64424698 7.16353062 -85.42106651 6.86123009 -80 6.90234375 C-79.2788501 6.9037587 -78.5577002 6.90517365 -77.81469727 6.90663147 C-75.54308676 6.91216619 -73.27158 6.92470577 -71 6.9375 C-69.44661602 6.94252346 -67.89323048 6.94708488 -66.33984375 6.95117188 C-62.55985672 6.96211411 -58.77994586 6.9793324 -55 7 C-54.81874069 7.90962746 -54.81874069 7.90962746 -54.63381958 8.83763123 C-53.36953043 15.18129721 -52.10385801 21.52468611 -50.83740234 27.86791992 C-50.36569724 30.23145668 -49.89433823 32.59506254 -49.42333984 34.95874023 C-48.74408724 38.36720967 -48.0635673 41.77542406 -47.3828125 45.18359375 C-47.17439728 46.23083115 -46.96598206 47.27806854 -46.75125122 48.35704041 C-45.5716417 54.25553339 -44.32747927 60.13296814 -43 66 C-42.8141333 64.87843506 -42.6282666 63.75687012 -42.43676758 62.60131836 C-36.20735221 25.1139429 -36.20735221 25.1139429 -33.25 11 C-33.0641333 10.07179443 -32.8782666 9.14358887 -32.68676758 8.18725586 C-32.140625 5.6875 -32.140625 5.6875 -31 2 C-21.59884954 -1.13371682 -9.79238499 -0.11959024 0 0 Z " fill="#FEFEFE" transform="translate(730,86)"/>
<path d="M0 0 C1.03060547 0.90492188 1.03060547 0.90492188 2.08203125 1.828125 C2.75878906 2.41078125 3.43554688 2.9934375 4.1328125 3.59375 C13.57124709 12.31742935 19.15639461 23.74924302 23.08203125 35.828125 C23.32824219 36.5603125 23.57445312 37.2925 23.828125 38.046875 C28.26182861 53.94705347 24.5470196 71.64097165 16.89453125 85.85546875 C6.78809839 102.43088988 -6.58410736 112.88811103 -25.35546875 118.640625 C-44.23674602 123.19723382 -62.99026952 119.53062454 -79.60546875 109.640625 C-93.21573686 100.4354219 -103.54281131 86.73339348 -107.91796875 70.828125 C-108.14097656 70.02117187 -108.36398437 69.21421875 -108.59375 68.3828125 C-112.5908351 51.46997624 -109.32739268 31.8879602 -100.25 17.11328125 C-98.54860513 14.61564861 -96.7713118 12.21456448 -94.91796875 9.828125 C-94.45777344 9.20292969 -93.99757813 8.57773437 -93.5234375 7.93359375 C-83.34438385 -5.06156696 -67.20224197 -11.71502036 -51.48046875 -14.859375 C-32.63169392 -16.5127763 -14.79581298 -12.26319635 0 0 Z " fill="#FEFEFE" transform="translate(549.91796875,572.171875)"/>
<path d="M0 0 C4.12592107 3.62526105 7.67983424 7.38054487 11.046875 11.72265625 C8.19150214 17.1084564 4.91108337 21.49674552 0.859375 26.03515625 C-0.00337036 27.01464233 -0.00337036 27.01464233 -0.88354492 28.01391602 C-2.56753821 29.92212837 -4.25968707 31.82282735 -5.953125 33.72265625 C-6.80132813 34.68429688 -7.64953125 35.6459375 -8.5234375 36.63671875 C-12.55861779 41.17805406 -16.72163291 45.52849473 -21.05078125 49.7890625 C-23.56657871 52.34618723 -25.88596022 55.05006594 -28.21875 57.7734375 C-30.50874662 60.34710488 -32.96700938 62.71972802 -35.47265625 65.08203125 C-37.06504424 66.84668285 -37.98931275 68.55995558 -38.953125 70.72265625 C-27.10647047 70.32776777 -18.2213879 64.39725221 -9.31738281 57.06274414 C-4.16374638 52.85858982 -4.16374638 52.85858982 -0.953125 52.72265625 C3.34943955 54.03958282 5.78210108 56.10437058 8.91015625 59.29296875 C9.79638672 60.18886719 10.68261719 61.08476562 11.59570312 62.0078125 C12.50771484 62.94496094 13.41972656 63.88210937 14.359375 64.84765625 C15.29943072 65.8027723 16.24017931 66.75720692 17.18164062 67.7109375 C19.47695567 70.04156508 21.76497146 72.37890821 24.046875 74.72265625 C16.4548249 90.3123923 -1.91209037 100.03856146 -17.5078125 106.10546875 C-39.08798488 113.09185549 -62.52189422 112.5167907 -82.98828125 102.19140625 C-97.90209255 93.29765662 -107.09441808 80.38370942 -111.49414062 63.72119141 C-114.76099864 49.49645752 -112.53027498 34.89935117 -105.48828125 22.0859375 C-100.14027841 13.85300691 -93.62028007 6.82673577 -85.953125 0.72265625 C-85.29183594 0.19027344 -84.63054687 -0.34210938 -83.94921875 -0.890625 C-60.03286453 -18.45348853 -23.43216271 -18.07004082 0 0 Z M-62.953125 31.72265625 C-65.46245914 35.94290003 -65.1150522 39.94580391 -64.953125 44.72265625 C-61.90979735 43.36423605 -59.83003349 41.83802601 -57.5 39.46484375 C-56.88125 38.83964844 -56.2625 38.21445313 -55.625 37.5703125 C-54.67367187 36.59384766 -54.67367187 36.59384766 -53.703125 35.59765625 C-52.72859375 34.60958984 -52.72859375 34.60958984 -51.734375 33.6015625 C-50.13600773 31.97968982 -48.54250603 30.35332815 -46.953125 28.72265625 C-47.283125 28.06265625 -47.613125 27.40265625 -47.953125 26.72265625 C-54.81196271 26.03677248 -58.23048394 26.53926972 -62.953125 31.72265625 Z " fill="#FEFEFE" transform="translate(580.953125,115.27734375)"/>
<path d="M0 0 C8.81675473 7.54306625 14.93736666 17.76489121 16.6875 29.3125 C18.10895814 48.69714188 14.7016391 67.32734365 2.0390625 82.63671875 C-0.61178923 85.67208449 -3.43026086 88.49671018 -6.3125 91.3125 C-7.04210937 92.06273437 -7.77171875 92.81296875 -8.5234375 93.5859375 C-19.3568166 104.09713433 -33.88712169 109.30791256 -48.8125 109.6875 C-62.9731576 109.32699446 -75.82519422 104.88257595 -86.25 95 C-94.53449222 86.0339682 -102.35931656 72.68751553 -102.296875 60.18359375 C-100.81037022 38.40629868 -91.76671947 20.94084013 -76 5.9375 C-54.43379574 -12.04076688 -23.62198955 -17.68968961 0 0 Z " fill="#FEFEFE" transform="translate(328.3125,178.6875)"/>
<path d="M0 0 C10.66934857 10.20931032 14.67036551 21.19204899 15.1640625 35.7578125 C15.1826122 54.73415429 6.09514256 69.47330563 -6.6875 82.73046875 C-17.97727993 93.93385612 -32.44996598 98.91612857 -48.01953125 99.00390625 C-48.91478516 99.02453125 -49.81003906 99.04515625 -50.73242188 99.06640625 C-64.04670058 99.14331183 -75.08784644 93.98020361 -84.76171875 84.98046875 C-88.21286743 81.26885602 -90.59256773 77.28048145 -92.83203125 72.75390625 C-93.24582031 71.96886719 -93.65960937 71.18382812 -94.0859375 70.375 C-99.32650216 58.70698321 -98.34460534 43.35942196 -94.0234375 31.5703125 C-93.63027344 30.64089844 -93.23710938 29.71148437 -92.83203125 28.75390625 C-92.28869141 27.43712891 -92.28869141 27.43712891 -91.734375 26.09375 C-88.74323682 19.53352491 -84.56628624 14.15405837 -79.83203125 8.75390625 C-79.27644531 8.11453125 -78.72085938 7.47515625 -78.1484375 6.81640625 C-67.17845128 -4.96909453 -51.73792045 -11.32629672 -35.84912109 -12.18994141 C-22.47439137 -12.56227109 -10.43033134 -8.27233175 0 0 Z " fill="#FEFEFE" transform="translate(835.83203125,167.24609375)"/>
<path d="M0 0 C11.30569441 8.93856464 18.6699562 18.51416168 21 33 C22.20829725 48.68805612 18.03455144 60.72923104 8.4140625 73.02734375 C1.36696956 80.88227418 -9.93378638 85.74148454 -20.3828125 86.37109375 C-30.56595766 86.632638 -38.77780563 85.76964494 -48 81 C-48.75539063 80.62746094 -49.51078125 80.25492188 -50.2890625 79.87109375 C-60.47980967 74.22486897 -66.8419799 64.22898607 -70.10546875 53.296875 C-73.32086475 39.69511319 -71.89040144 25.61235839 -64.578125 13.6796875 C-63.15392634 11.66590123 -61.64062398 9.84010432 -60 8 C-59.51144531 7.39671875 -59.02289063 6.7934375 -58.51953125 6.171875 C-44.61954818 -9.6157601 -17.11483729 -11.56588614 0 0 Z " fill="#191B1B" transform="translate(533,585)"/>
<path d="M0 0 C6.87068436 5.35259029 11.07043206 12.70180799 12.24609375 21.3203125 C12.72781486 37.10470745 5.87397957 49.92553916 -4.6796875 61.32421875 C-8.91960022 65.05739455 -15.3899245 69.59765625 -21.26171875 69.59765625 C-23.30850145 63.07365662 -25.35289319 56.54891102 -27.39575195 50.02368164 C-28.08858235 47.81160183 -28.78192709 45.59968304 -29.47583008 43.38793945 C-31.45274596 37.08607404 -33.41867754 30.78098119 -35.36956787 24.4710083 C-36.20439249 21.78228705 -37.0518596 19.09783816 -37.90087891 16.41357422 C-38.37218944 14.8905376 -38.84278536 13.36727956 -39.3125 11.84375 C-39.52931931 11.17126724 -39.74613861 10.49878448 -39.9695282 9.80592346 C-41.11091383 6.04165469 -41.41192483 3.3842593 -40.26171875 -0.40234375 C-38.36718654 -1.05198398 -36.47103226 -1.6968949 -34.57421875 -2.33984375 C-33.51847656 -2.69949219 -32.46273437 -3.05914062 -31.375 -3.4296875 C-20.27457715 -6.89769915 -10.02789753 -6.21764286 0 0 Z M-19.26171875 14.59765625 C-20.55184808 16.61209468 -20.55184808 16.61209468 -19.56494141 18.99609375 C-19.18901855 19.97835937 -18.8130957 20.960625 -18.42578125 21.97265625 C-18.02101562 23.04 -17.61625 24.10734375 -17.19921875 25.20703125 C-16.76609375 26.3259375 -16.33296875 27.44484375 -15.88671875 28.59765625 C-15.46132812 29.7165625 -15.0359375 30.83546875 -14.59765625 31.98828125 C-12.60362694 37.36802917 -12.60362694 37.36802917 -10.26171875 42.59765625 C-6.89309589 41.85905108 -6.89309589 41.85905108 -5.44921875 38.16015625 C-3.70951607 32.99657065 -4.32972135 28.63231048 -6.26171875 23.59765625 C-8.73011551 19.35607574 -11.36762863 16.56282982 -16.13671875 15.16015625 C-17.16796875 14.97453125 -18.19921875 14.78890625 -19.26171875 14.59765625 Z " fill="#101413" transform="translate(187.26171875,144.40234375)"/>
<path d="M0 0 C2.13491532 1.57556751 4.04430535 3.1987023 6 5 C4.49993609 8.44779086 2.49590738 10.82360533 -0.0625 13.5625 C-3.23785117 17.02560159 -6.29828184 20.53195256 -9.25 24.1875 C-12.98642684 28.79729199 -16.80936464 33.32199847 -20.6875 37.8125 C-21.22213867 38.43471436 -21.75677734 39.05692871 -22.30761719 39.69799805 C-32.01810868 50.8992932 -32.01810868 50.8992932 -35.4375 51.25 C-41.30056107 48.38997021 -44.92198226 45.04788885 -47.4375 38.9375 C-50.42893059 29.44744433 -50.16884813 19.09991102 -46 10 C-41.30713134 2.219008 -35.69901352 -2.41336151 -27 -5 C-17.27809671 -7.39479184 -8.32044828 -5.325677 0 0 Z M-31 14 C-33.50933414 18.22024378 -33.1619272 22.22314766 -33 27 C-29.95667235 25.6415798 -27.87690849 24.11536976 -25.546875 21.7421875 C-24.928125 21.11699219 -24.309375 20.49179688 -23.671875 19.84765625 C-22.72054687 18.87119141 -22.72054687 18.87119141 -21.75 17.875 C-20.77546875 16.88693359 -20.77546875 16.88693359 -19.78125 15.87890625 C-18.18288273 14.25703357 -16.58938103 12.6306719 -15 11 C-15.33 10.34 -15.66 9.68 -16 9 C-22.85883771 8.31411623 -26.27735894 8.81661347 -31 14 Z " fill="#0F1413" transform="translate(549,133)"/>
<path d="M0 0 C0 0.66 0 1.32 0 2 C-0.65226563 2.13535156 -1.30453125 2.27070313 -1.9765625 2.41015625 C-7.50990442 3.77308855 -11.58126717 5.246234 -15.06640625 9.90625 C-16.88769515 13.99081422 -16.20838766 17.8086211 -15 22 C-12.8963143 26.06228963 -11.28456703 28.40858939 -7 30 C-3.46816008 30.35552862 -3.46816008 30.35552862 0.375 30.3125 C1.66148437 30.32925781 2.94796875 30.34601563 4.2734375 30.36328125 C9.90244502 29.81454152 13.7279773 27.54482043 17.875 23.8125 C18.47054687 23.28269531 19.06609375 22.75289062 19.6796875 22.20703125 C20.11539063 21.80871094 20.55109375 21.41039062 21 21 C21.62682388 28.20847457 19.62296695 34.35452052 15.38671875 40.2421875 C13.66922956 42.26052291 11.88999455 44.14309069 10 46 C9.50371094 46.50660156 9.00742187 47.01320312 8.49609375 47.53515625 C3.16229432 52.52015135 -3.4946657 53.52426165 -10.58203125 53.3046875 C-19.72940237 52.15203007 -27.09062546 48.03169762 -33 41 C-37.0391986 34.94120209 -40.05432194 28.85101933 -39.5078125 21.4375 C-37.64128435 12.47816487 -32.46755976 6.09651787 -25 1 C-17.18652083 -3.06410387 -8.11321097 -3.41608883 0 0 Z " fill="#0F1312" transform="translate(807,170)"/>
<path d="M0 0 C0 0.66 0 1.32 0 2 C-0.59167969 2.07476562 -1.18335938 2.14953125 -1.79296875 2.2265625 C-6.11892833 2.94637959 -9.12752313 3.52591293 -12 7 C-15.25046167 11.8756925 -15.52572346 15.21704196 -15 21 C-13.71827336 24.84517992 -12.7031009 26.48553593 -9.4375 28.875 C-3.65285208 30.7681575 1.62151977 30.83687267 7.375 28.8125 C12.62532623 25.18727474 14.74035538 20.76209378 17 15 C17.66 15 18.32 15 19 15 C21.3308406 22.60388982 21.25969447 32.3296834 18.0625 39.625 C15.09920587 44.67264509 11.28783362 46.79524225 6 49 C5.38382812 49.31710938 4.76765625 49.63421875 4.1328125 49.9609375 C-2.85711342 53.23090284 -11.59132688 53.39976867 -18.87890625 51.0859375 C-27.08620494 47.20156713 -33.05328055 42.19703271 -37 34 C-39.15509911 26.76812378 -38.36999455 20.20298258 -35.3125 13.35546875 C-28.28261092 0.73932852 -13.57221583 -3.91444523 0 0 Z " fill="#101413" transform="translate(302,184)"/>
<path d="M0 0 C4.6526924 0.83552743 6.64292378 3.65702571 9.5 7.1875 C9.97308594 7.75275391 10.44617188 8.31800781 10.93359375 8.90039062 C13.87084017 12.45193651 16.69402545 16.00410782 19 20 C17.83852961 23.48441117 17.40501714 23.61803337 14.30078125 25.2421875 C13.51388916 25.66242187 12.72699707 26.08265625 11.91625977 26.515625 C11.05701904 26.96421875 10.19777832 27.4128125 9.3125 27.875 C1.4550442 32.07904396 -6.27800819 36.44480412 -13.9375 41 C-15.33005005 41.82733643 -15.33005005 41.82733643 -16.75073242 42.67138672 C-21.73765097 45.6324097 -21.73765097 45.6324097 -26.65454102 48.70703125 C-29 50 -29 50 -31.125 49.4375 C-33.2005893 47.84621487 -34.47322538 46.10901918 -36 44 C-30.11658394 35.93754096 -23.93738879 28.23861715 -17.43359375 20.671875 C-14.9831581 17.81414623 -12.5551521 14.93747523 -10.125 12.0625 C-9.68494629 11.54308838 -9.24489258 11.02367676 -8.79150391 10.48852539 C-5.84318496 7.0069521 -2.91703794 3.50776426 0 0 Z " fill="#FEFEFE" transform="translate(554,30)"/>
<path d="M0 0 C1.65322266 0.01740234 1.65322266 0.01740234 3.33984375 0.03515625 C4.44457031 0.04417969 5.54929687 0.05320312 6.6875 0.0625 C7.54214844 0.07410156 8.39679687 0.08570313 9.27734375 0.09765625 C9.27734375 1.08765625 9.27734375 2.07765625 9.27734375 3.09765625 C5.13235759 3.32585373 0.98646358 3.5265775 -3.16015625 3.72265625 C-4.9071582 3.81933594 -4.9071582 3.81933594 -6.68945312 3.91796875 C-13.45946094 4.22309586 -19.18849158 3.92862004 -25.72265625 2.09765625 C-25.72265625 1.76765625 -25.72265625 1.43765625 -25.72265625 1.09765625 C-25.06144775 1.10289307 -24.40023926 1.10812988 -23.71899414 1.11352539 C-20.74105774 1.13423281 -17.76313643 1.14729637 -14.78515625 1.16015625 C-13.74423828 1.16853516 -12.70332031 1.17691406 -11.63085938 1.18554688 C-10.64150391 1.18876953 -9.65214844 1.19199219 -8.6328125 1.1953125 C-7.71636963 1.20054932 -6.79992676 1.20578613 -5.85571289 1.21118164 C-3.07300418 1.06308051 -2.98920954 0.10721698 0 0 Z " fill="#22231F" transform="translate(523.72265625,920.90234375)"/>
<path d="M0 0 C1.76757812 1.42700195 1.76757812 1.42700195 3.53125 3.23828125 C4.17707031 3.89376953 4.82289063 4.54925781 5.48828125 5.22460938 C6.15214844 5.91361328 6.81601562 6.60261719 7.5 7.3125 C8.49580078 8.32860352 8.49580078 8.32860352 9.51171875 9.36523438 C10.78688362 10.66712426 12.05916999 11.97184177 13.328125 13.27978516 C15.19989443 15.20567408 17.0937087 17.10829766 19 19 C18.01 19 17.02 19 16 19 C16 18.34 16 17.68 16 17 C15.4016333 16.73340576 14.8032666 16.46681152 14.18676758 16.19213867 C11.95207703 14.9738743 10.68875262 13.81769654 9.01171875 11.92578125 C8.46966797 11.34119141 7.92761719 10.75660156 7.36914062 10.15429688 C6.24748392 8.92581572 5.13801275 7.68609757 4.04101562 6.43554688 C2.42479571 4.71628579 0.99136959 3.26937881 -1 2 C-4.82530332 1.93778159 -4.82530332 1.93778159 -8 3 C-7.67 2.01 -7.34 1.02 -7 0 C-3.81569288 -1.06143571 -3.02858494 -1.13935598 0 0 Z " fill="#0C0C0B" transform="translate(422,61)"/>
<path d="M0 0 C0.33 0 0.66 0 1 0 C1 7.26 1 14.52 1 22 C-2.33449915 17.55400114 -2.54284095 15.25042882 -2 10 C-1.44001677 6.64010059 -0.76187671 3.31960566 0 0 Z " fill="#070706" transform="translate(883,205)"/>
<path d="M0 0 C1.29349365 0.00523682 2.5869873 0.01047363 3.91967773 0.01586914 C4.9496714 0.01799156 4.9496714 0.01799156 6.00047302 0.02015686 C8.20144949 0.0257706 10.40232557 0.03832532 12.60327148 0.05102539 C14.09220231 0.05603863 15.58113473 0.06060184 17.07006836 0.06469727 C20.72700223 0.07574446 24.38387707 0.09301826 28.04077148 0.11352539 C28.04077148 0.44352539 28.04077148 0.77352539 28.04077148 1.11352539 C20.12077148 1.44352539 12.20077148 1.77352539 4.04077148 2.11352539 C4.04077148 2.44352539 4.04077148 2.77352539 4.04077148 3.11352539 C1.16577148 3.23852539 1.16577148 3.23852539 -1.95922852 3.11352539 C-2.61922852 2.45352539 -3.27922852 1.79352539 -3.95922852 1.11352539 C-2.95922852 0.11352539 -2.95922852 0.11352539 0 0 Z " fill="#1A1E1E" transform="translate(140.959228515625,89.886474609375)"/>
<path d="M0 0 C1.134375 0.020625 2.26875 0.04125 3.4375 0.0625 C3.4375 0.7225 3.4375 1.3825 3.4375 2.0625 C0.37830612 3.08223129 -1.68668025 3.17783602 -4.88671875 3.16015625 C-5.91474609 3.15693359 -6.94277344 3.15371094 -8.00195312 3.15039062 C-9.07380859 3.14201172 -10.14566406 3.13363281 -11.25 3.125 C-12.33345703 3.12048828 -13.41691406 3.11597656 -14.53320312 3.11132812 C-17.20969085 3.09953743 -19.88606777 3.08308063 -22.5625 3.0625 C-22.5625 2.7325 -22.5625 2.4025 -22.5625 2.0625 C-21.27472656 2.00191406 -19.98695313 1.94132813 -18.66015625 1.87890625 C-16.98175841 1.79451753 -15.30337364 1.7098687 -13.625 1.625 C-12.34979492 1.56602539 -12.34979492 1.56602539 -11.04882812 1.50585938 C-10.23994141 1.46396484 -9.43105469 1.42207031 -8.59765625 1.37890625 C-7.47435913 1.32391968 -7.47435913 1.32391968 -6.32836914 1.26782227 C-3.2426439 0.90903685 -3.87196625 0.06792923 0 0 Z " fill="#242624" transform="translate(522.5625,897.9375)"/>
<path d="M0 0 C0.66 0 1.32 0 2 0 C2 2.64 2 5.28 2 8 C-1.3 9.32 -4.6 10.64 -8 12 C-8.33 11.01 -8.66 10.02 -9 9 C-6.36 8.34 -3.72 7.68 -1 7 C-0.67 4.69 -0.34 2.38 0 0 Z " fill="#1C1D1A" transform="translate(405,295)"/>
<path d="M0 0 C-0.33 3.63 -0.66 7.26 -1 11 C-1.33 11 -1.66 11 -2 11 C-2 7.7 -2 4.4 -2 1 C-2.33 1.66 -2.66 2.32 -3 3 C-5.06640625 3.4140625 -5.06640625 3.4140625 -7.5625 3.625 C-8.38878906 3.69976562 -9.21507812 3.77453125 -10.06640625 3.8515625 C-11.02353516 3.92503906 -11.02353516 3.92503906 -12 4 C-12.33 3.01 -12.66 2.02 -13 1 C-11.20994059 0.63779734 -9.41787943 0.28547531 -7.625 -0.0625 C-6.12839844 -0.35833984 -6.12839844 -0.35833984 -4.6015625 -0.66015625 C-2 -1 -2 -1 0 0 Z " fill="#1C1F1D" transform="translate(338,117)"/>
<path d="M0 0 C0.94875 0.165 1.8975 0.33 2.875 0.5 C5.80168901 1.0526635 5.80168901 1.0526635 8 1 C8.99 1 9.98 1 11 1 C11 1.66 11 2.32 11 3 C7.04 3.99 3.08 4.98 -1 6 C-0.67 4.02 -0.34 2.04 0 0 Z " fill="#181A17" transform="translate(796,169)"/>
<path d="M0 0 C0.66 0.33 1.32 0.66 2 1 C2.4140625 3.72265625 2.4140625 3.72265625 2.625 7.0625 C2.69976563 8.16722656 2.77453125 9.27195312 2.8515625 10.41015625 C2.90054688 11.26480469 2.94953125 12.11945312 3 13 C2.01 12.67 1.02 12.34 0 12 C-0.19401633 10.18818595 -0.38004375 8.37551468 -0.5625 6.5625 C-0.66691406 5.55316406 -0.77132812 4.54382813 -0.87890625 3.50390625 C-0.91886719 2.67761719 -0.95882812 1.85132813 -1 1 C-0.67 0.67 -0.34 0.34 0 0 Z " fill="#242422" transform="translate(801,578)"/>
<path d="M0 0 C0.33 0 0.66 0 1 0 C0.55761615 7.53216715 -0.13905228 14.6802723 -2 22 C-4 18.25 -4 18.25 -4 16 C-3.34 16 -2.68 16 -2 16 C-1.93941406 15.18015625 -1.87882813 14.3603125 -1.81640625 13.515625 C-1.73261719 12.43796875 -1.64882813 11.3603125 -1.5625 10.25 C-1.48128906 9.18265625 -1.40007813 8.1153125 -1.31640625 7.015625 C-1.05909227 4.56320038 -0.68187782 2.36078709 0 0 Z " fill="#0B0C0B" transform="translate(691,120)"/>
<path d="M0 0 C1.91595968 -0.08133791 3.83291932 -0.13934367 5.75 -0.1875 C7.35101563 -0.23970703 7.35101563 -0.23970703 8.984375 -0.29296875 C12 0 12 0 16 3 C11.05 3 6.1 3 1 3 C0.67 2.01 0.34 1.02 0 0 Z " fill="#2A2A27" transform="translate(503,325)"/>
<path d="M0 0 C0 0.66 0 1.32 0 2 C-3.34939881 4.02558881 -5.86962551 4.21738987 -9.75 4.125 C-10.73484375 4.10695312 -11.7196875 4.08890625 -12.734375 4.0703125 C-13.85585938 4.03550781 -13.85585938 4.03550781 -15 4 C-14.67 3.01 -14.34 2.02 -14 1 C-12.04175306 0.83232136 -10.08339945 0.66588795 -8.125 0.5 C-6.48917969 0.36078125 -6.48917969 0.36078125 -4.8203125 0.21875 C-3.21670436 0.09437042 -1.60842449 0 0 0 Z " fill="#20221F" transform="translate(817,200)"/>
<path d="M0 0 C4.62 0 9.24 0 14 0 C13.67 0.99 13.34 1.98 13 3 C11.20906809 3.08086147 9.41710372 3.13912702 7.625 3.1875 C6.12839844 3.23970703 6.12839844 3.23970703 4.6015625 3.29296875 C3.74304688 3.19628906 2.88453125 3.09960938 2 3 C1.34 2.01 0.68 1.02 0 0 Z " fill="#272824" transform="translate(481,921)"/>
<path d="M0 0 C0.33 0.99 0.66 1.98 1 3 C1.66 3 2.32 3 3 3 C3.84098656 7.01804691 4.05404945 10.01803543 3 14 C0.81005752 10.71508627 0.64722661 9.16904361 0.375 5.3125 C0.30023437 4.31863281 0.22546875 3.32476562 0.1484375 2.30078125 C0.09945312 1.54152344 0.05046875 0.78226562 0 0 Z " fill="#0B0D0D" transform="translate(678,107)"/>
<path d="M0 0 C0 3.96 0 7.92 0 12 C-0.99 11.67 -1.98 11.34 -3 11 C-3 7.7 -3 4.4 -3 1 C-1 0 -1 0 0 0 Z " fill="#373731" transform="translate(211,603)"/>
<path d="M0 0 C5.28 1.32 10.56 2.64 16 4 C16 4.33 16 4.66 16 5 C11.05 4.67 6.1 4.34 1 4 C0.67 2.68 0.34 1.36 0 0 Z " fill="#1A1A19" transform="translate(248,310)"/>
<path d="M0 0 C7.42857143 1 7.42857143 1 11 2 C11 2.99 11 3.98 11 5 C3.49230769 4.50769231 3.49230769 4.50769231 1 1.9375 C0.67 1.298125 0.34 0.65875 0 0 Z " fill="#191B19" transform="translate(689,304)"/>
<path d="M0 0 C3.7952131 1.49097658 5.61042731 3.75700849 8 7 C7.01 7.33 6.02 7.66 5 8 C2.5 5.6875 2.5 5.6875 0 3 C0 2.01 0 1.02 0 0 Z " fill="#1D1F1C" transform="translate(440,80)"/>
<path d="M0 0 C0 2 0 2 -1.125 3.4375 C-3.58844787 5.49037322 -6.04402976 6.76834573 -9 8 C-9.99 7.67 -10.98 7.34 -12 7 C-10.3790787 5.82767315 -8.75313167 4.6622923 -7.125 3.5 C-6.22007812 2.8503125 -5.31515625 2.200625 -4.3828125 1.53125 C-2 0 -2 0 0 0 Z " fill="#282724" transform="translate(342,376)"/>
<path d="M0 0 C1.485 0.99 1.485 0.99 3 2 C3.29296875 4.3828125 3.29296875 4.3828125 3.1875 7.125 C3.16042969 8.03507813 3.13335938 8.94515625 3.10546875 9.8828125 C3.07066406 10.58148438 3.03585937 11.28015625 3 12 C2.34 11.67 1.68 11.34 1 11 C0.5859375 8.49609375 0.5859375 8.49609375 0.375 5.4375 C0.30023437 4.42558594 0.22546875 3.41367188 0.1484375 2.37109375 C0.09945312 1.58863281 0.05046875 0.80617187 0 0 Z " fill="#0A0A09" transform="translate(685,141)"/>
<path d="M0 0 C3.875 0.875 3.875 0.875 5 2 C5.04092937 4.33297433 5.04241723 6.66705225 5 9 C4.01 8.67 3.02 8.34 2 8 C2 6.02 2 4.04 2 2 C1.01 2.33 0.02 2.66 -1 3 C-0.67 2.01 -0.34 1.02 0 0 Z " fill="#181B19" transform="translate(321,292)"/>
<path d="M0 0 C3.63 0.66 7.26 1.32 11 2 C9.02 2.99 9.02 2.99 7 4 C6.01 3.67 5.02 3.34 4 3 C3.67 3.33 3.34 3.66 3 4 C2.01 3.67 1.02 3.34 0 3 C0 2.01 0 1.02 0 0 Z " fill="#191A18" transform="translate(882,97)"/>
<path d="M0 0 C-0.66 0 -1.32 0 -2 0 C-2 0.66 -2 1.32 -2 2 C-4.875 2.625 -4.875 2.625 -8 3 C-8.66 2.34 -9.32 1.68 -10 1 C-3.71428571 -1.42857143 -3.71428571 -1.42857143 0 0 Z " fill="#242422" transform="translate(407,345)"/>
<path d="M0 0 C0.33 0.66 0.66 1.32 1 2 C-0.45635371 2.22174933 -1.91522956 2.42698698 -3.375 2.625 C-4.18710937 2.74101562 -4.99921875 2.85703125 -5.8359375 2.9765625 C-6.55007813 2.98429687 -7.26421875 2.99203125 -8 3 C-8.66 2.34 -9.32 1.68 -10 1 C-6.61981469 -0.04005702 -3.5219721 -0.08004482 0 0 Z " fill="#232321" transform="translate(437,335)"/>
<path d="M0 0 C2.64 0.33 5.28 0.66 8 1 C8 1.99 8 2.98 8 4 C5.03 3.67 2.06 3.34 -1 3 C-0.67 2.01 -0.34 1.02 0 0 Z " fill="#191A18" transform="translate(974,118)"/>
<path d="M0 0 C0.66 0 1.32 0 2 0 C1.375 7.625 1.375 7.625 -2 11 C-1.34 7.37 -0.68 3.74 0 0 Z " fill="#111211" transform="translate(550,635)"/>
<path d="M0 0 C0.94875 0.04125 1.8975 0.0825 2.875 0.125 C3.535 1.445 4.195 2.765 4.875 4.125 C1.575 3.465 -1.725 2.805 -5.125 2.125 C-3.125 0.125 -3.125 0.125 0 0 Z " fill="#191A18" transform="translate(874.125,345.875)"/>
<path d="M0 0 C0 0.99 0 1.98 0 3 C-5.94 3.495 -5.94 3.495 -12 4 C-8.36043372 1.57362248 -4.44144233 0 0 0 Z " fill="#282825" transform="translate(423,338)"/>
<path d="M0 0 C0.99 0.33 1.98 0.66 3 1 C0.64722731 3.72426311 -1.62496331 4.8141763 -5 6 C-4.67 4.68 -4.34 3.36 -4 2 C-2.68 2 -1.36 2 0 2 C0 1.34 0 0.68 0 0 Z " fill="#272725" transform="translate(647,887)"/>
<path d="M0 0 C2.31 0 4.62 0 7 0 C7.33 0.99 7.66 1.98 8 3 C5.03 3 2.06 3 -1 3 C-0.67 2.01 -0.34 1.02 0 0 Z " fill="#1F2320" transform="translate(734,283)"/>
<path d="M0 0 C1.670625 0.061875 1.670625 0.061875 3.375 0.125 C3.375 1.115 3.375 2.105 3.375 3.125 C0.405 2.795 -2.565 2.465 -5.625 2.125 C-3.625 0.125 -3.625 0.125 0 0 Z " fill="#191D1C" transform="translate(333.625,313.875)"/>
<path d="M0 0 C0.125 3.375 0.125 3.375 0 7 C-0.66 7.66 -1.32 8.32 -2 9 C-2 7.35 -2 5.7 -2 4 C-2.66 3.67 -3.32 3.34 -4 3 C-1.125 0 -1.125 0 0 0 Z " fill="#0D0D0C" transform="translate(828,191)"/>
<path d="M0 0 C1.5 1.1875 1.5 1.1875 3 3 C3.1875 5.6875 3.1875 5.6875 3 8 C2.01 8 1.02 8 0 8 C0 5.36 0 2.72 0 0 Z " fill="#1D201D" transform="translate(466,166)"/>
<path d="M0 0 C0.66 0.33 1.32 0.66 2 1 C2 3.64 2 6.28 2 9 C1.01 8.67 0.02 8.34 -1 8 C-0.67 5.36 -0.34 2.72 0 0 Z " fill="#171C1C" transform="translate(380,116)"/>
<path d="M0 0 C0.66 0.33 1.32 0.66 2 1 C1.38125 1.2475 0.7625 1.495 0.125 1.75 C-2.35068687 3.20628639 -2.95125002 4.37812506 -4 7 C-4.99 6.67 -5.98 6.34 -7 6 C-4.69 4.02 -2.38 2.04 0 0 Z " fill="#0D0F0D" transform="translate(680,68)"/>
<path d="M0 0 C0.99 0.33 1.98 0.66 3 1 C3.33 2.98 3.66 4.96 4 7 C3.01 7 2.02 7 1 7 C0.67 4.69 0.34 2.38 0 0 Z " fill="#2A2826" transform="translate(217,699)"/>
<path d="M0 0 C0.66 1.32 1.32 2.64 2 4 C0.625 6 0.625 6 -1 8 C-1.66 8 -2.32 8 -3 8 C-1.125 2.25 -1.125 2.25 0 0 Z " fill="#272624" transform="translate(239,491)"/>
<path d="M0 0 C0.33 0.99 0.66 1.98 1 3 C1.99 3.33 2.98 3.66 4 4 C3.34 4 2.68 4 2 4 C2 4.66 2 5.32 2 6 C0.68 5.67 -0.64 5.34 -2 5 C-1.125 1.125 -1.125 1.125 0 0 Z " fill="#191A18" transform="translate(804,307)"/>
<path d="M0 0 C0.99 0.33 1.98 0.66 3 1 C3 3.31 3 5.62 3 8 C2.01 7.67 1.02 7.34 0 7 C0 4.69 0 2.38 0 0 Z " fill="#1E201E" transform="translate(804,291)"/>
<path d="M0 0 C0.99 0 1.98 0 3 0 C3.33 2.31 3.66 4.62 4 7 C3.01 7.66 2.02 8.32 1 9 C1.33 7.02 1.66 5.04 2 3 C1.34 3 0.68 3 0 3 C0 2.01 0 1.02 0 0 Z " fill="#1A1C1B" transform="translate(711,252)"/>
<path d="M0 0 C1.98 0 3.96 0 6 0 C6 0.99 6 1.98 6 3 C3.69 3 1.38 3 -1 3 C-0.67 2.01 -0.34 1.02 0 0 Z " fill="#191B1A" transform="translate(525,225)"/>
</svg>
