<?xml version="1.0" standalone="no"?>
<svg version="1.0" xmlns="http://www.w3.org/2000/svg"
 width="256.000000pt" height="256.000000pt" viewBox="0 0 256.000000 256.000000"
 preserveAspectRatio="xMidYMid meet">

<g transform="translate(0.000000,256.000000) scale(0.100000,-0.100000)"
stroke="none">
<path d="M465 1787 c-94 -53 -112 -165 -38 -245 33 -37 43 -51 43 -62 0 -6
-68 -10 -200 -10 l-200 0 0 -80 0 -79 258 -3 c239 -3 260 -2 295 17 48 24 75
67 78 125 3 61 -7 87 -55 138 -22 24 -42 48 -44 53 -2 5 48 9 117 9 l121 0 0
-170 0 -170 90 0 90 0 0 165 0 164 108 3 107 3 3 83 3 82 -368 0 c-363 0 -369
-1 -408 -23z"/>
<path d="M1290 1698 c-18 -62 -38 -119 -43 -125 -5 -7 -7 -13 -4 -13 3 0 1
-15 -4 -32 -6 -18 -11 -37 -13 -43 -7 -27 -39 -133 -47 -152 -9 -23 -8 -23 85
-23 l93 0 9 33 10 32 89 0 89 0 10 -32 9 -33 88 0 c55 0 89 4 89 10 0 6 -9 39
-21 73 -12 34 -22 67 -23 72 -1 6 -7 26 -13 45 -7 19 -30 95 -53 168 l-41 132
-138 0 -137 0 -34 -112z m205 -141 l7 -37 -37 0 c-24 0 -35 4 -33 13 2 6 10
34 17 61 14 47 14 48 27 25 7 -14 15 -41 19 -62z"/>
<path d="M1790 1560 l0 -250 105 0 105 0 0 67 0 67 63 -61 c34 -34 72 -66 84
-70 12 -4 94 -7 182 -5 l161 3 0 84 0 85 -135 0 c-77 0 -135 4 -135 9 0 5 14
19 30 31 40 28 63 76 63 126 -1 49 -15 79 -56 113 -55 47 -77 51 -278 51
l-189 0 0 -250z m338 73 c-3 -27 -5 -28 -69 -31 l-66 -3 5 31 c4 30 5 30 69
30 64 0 64 0 61 -27z"/>
<path d="M75 1228 c4 -18 19 -67 32 -108 14 -41 26 -82 28 -91 2 -9 11 -39 20
-65 9 -27 18 -53 19 -59 3 -15 26 -87 38 -117 10 -27 12 -28 94 -28 l83 0 12
43 c6 23 16 48 22 56 7 8 11 16 9 18 -8 8 10 63 19 58 6 -4 35 -90 30 -90 0 0
6 -18 13 -40 l14 -40 83 -3 c45 -2 86 1 91 6 5 5 11 22 14 38 5 28 50 181 81
274 8 25 17 54 19 66 2 12 10 39 18 62 8 22 12 43 9 46 -4 3 -45 6 -93 6 l-87
0 -17 -60 c-9 -32 -20 -61 -24 -64 -4 -2 -16 25 -27 60 l-19 64 -103 0 c-106
0 -108 -1 -117 -42 -15 -63 -20 -79 -27 -84 -5 -3 -9 0 -9 5 0 16 0 16 -19 68
l-17 48 -98 3 -98 3 7 -33z"/>
<path d="M917 1254 c-4 -4 -7 -16 -7 -26 0 -11 -14 -61 -31 -111 -17 -51 -33
-99 -34 -107 -2 -8 -13 -46 -25 -85 -11 -38 -22 -77 -25 -85 -2 -8 -8 -30 -14
-47 l-10 -33 91 0 90 0 11 29 c11 29 12 30 99 33 l89 3 11 -32 12 -33 91 0 91
0 -28 88 c-16 48 -30 94 -32 102 -2 8 -6 23 -10 32 -4 9 -9 22 -10 30 -2 7
-10 39 -20 70 -10 32 -17 59 -17 60 1 2 -7 28 -18 58 l-19 55 -139 3 c-77 1
-142 -1 -146 -4z m168 -202 c2 -9 8 -30 14 -45 15 -38 16 -37 -29 -37 -46 0
-47 3 -22 76 17 51 27 53 37 6z"/>
<path d="M1400 1010 l0 -250 100 0 100 0 0 68 0 68 64 -62 c41 -39 75 -63 96
-68 18 -3 132 -6 254 -6 252 0 273 5 313 76 42 73 20 159 -60 233 l-28 26 125
-3 126 -4 0 86 0 86 -170 0 c-179 0 -221 -9 -263 -54 -19 -21 -36 -79 -33
-112 3 -30 27 -84 37 -84 5 0 9 -6 9 -14 0 -7 11 -21 25 -30 14 -9 25 -21 25
-26 0 -13 -277 -13 -284 -1 -3 5 10 21 29 37 30 24 48 51 50 76 0 3 3 10 8 14
13 13 7 48 -17 100 -20 43 -31 54 -74 72 -46 20 -68 22 -241 22 l-191 0 0
-250z m338 83 c4 -30 -27 -45 -86 -41 -36 2 -48 7 -50 21 -8 40 5 48 70 45 56
-3 63 -5 66 -25z"/>
</g>
</svg>
