<?xml version="1.0" standalone="no"?>
<svg version="1.0" xmlns="http://www.w3.org/2000/svg"
 width="256.000000pt" height="256.000000pt" viewBox="0 0 256.000000 256.000000"
 preserveAspectRatio="xMidYMid meet">
<metadata>
Created by potrace 1.16, written by Peter Selinger 2001-2019
</metadata>
<g transform="translate(0.000000,256.000000) scale(0.100000,-0.100000)"
stroke="currentColor" fill="currentColor">
<path d="M1095 2168 c-145 -34 -211 -51 -229 -58 -113 -46 -419 -152 -486
-168 -120 -29 -218 -42 -267 -35 -42 5 -43 5 -58 -30 -8 -20 -15 -49 -15 -65
0 -99 182 -93 520 18 366 120 389 127 535 161 105 24 244 24 381 -1 164 -30
247 -54 561 -163 73 -26 163 -52 199 -58 94 -16 243 -7 286 18 30 17 33 23 36
74 4 74 -11 88 -74 71 -63 -17 -138 -15 -251 7 -88 18 -153 39 -318 103 -125
49 -297 101 -387 119 -108 21 -358 25 -433 7z"/>
<path d="M1190 1894 c-94 -11 -174 -32 -390 -104 -317 -106 -551 -175 -680
-199 -99 -19 -104 -23 -96 -84 10 -73 19 -80 86 -72 88 10 217 -20 410 -95
358 -140 574 -185 865 -178 l181 4 -45 -44 c-24 -24 -92 -85 -150 -135 -58
-50 -113 -98 -122 -106 -8 -9 -35 -32 -59 -51 -24 -19 -58 -47 -75 -61 -78
-67 -258 -167 -365 -202 -139 -46 -341 -49 -437 -7 -92 40 -153 126 -153 216
0 95 51 184 105 184 31 0 43 -18 55 -80 14 -72 41 -100 97 -100 79 0 123 52
123 145 0 56 -18 92 -64 132 -47 42 -98 58 -181 57 -184 -1 -295 -129 -295
-338 0 -83 3 -99 30 -153 80 -160 243 -243 477 -243 167 1 317 43 511 146 190
100 381 250 611 481 179 180 251 230 268 187 9 -24 -18 -186 -77 -464 -13 -61
-30 -222 -30 -292 0 -55 1 -58 25 -58 24 0 39 20 180 240 153 238 199 298 249
326 28 15 14 41 -26 49 -171 38 -201 258 -53 394 79 73 208 120 328 121 43 0
47 2 47 25 0 24 -26 103 -40 118 -4 4 -37 3 -74 -4 -100 -19 -226 1 -406 63
-80 27 -197 68 -260 89 -170 59 -301 87 -426 92 -60 3 -125 3 -144 1z m420
-198 c67 -16 207 -65 345 -120 l104 -42 -82 -51 c-123 -75 -221 -111 -422
-154 -287 -60 -647 -3 -1040 164 l-60 26 36 15 c19 8 125 42 235 76 109 34
206 66 214 70 8 4 28 10 43 14 26 6 27 5 18 -13 -33 -61 6 -193 75 -249 171
-141 455 -31 458 178 1 30 -3 65 -7 78 -10 27 1 28 83 8z"/>
</g>
</svg>
